<?xml version="1.0" encoding="UTF-8"?>
<svg version="1.1" xmlns="http://www.w3.org/2000/svg" width="512" height="512">
<path d="M0 0 C1.12011475 -0.01140015 2.24022949 -0.02280029 3.39428711 -0.0345459 C5.75077593 -0.05334461 8.10731612 -0.06647331 10.46386719 -0.07421875 C14.05236446 -0.09369499 17.63859841 -0.15585498 21.2265625 -0.21875 C23.52602819 -0.23180695 25.8255101 -0.24230912 28.125 -0.25 C29.18775146 -0.2746936 30.25050293 -0.29938721 31.34545898 -0.3248291 C38.71645883 -0.28108342 43.55377216 1.40907442 49.0625 6.40625 C50.0525 7.89125 50.0525 7.89125 51.0625 9.40625 C52.9621299 10.01425133 52.9621299 10.01425133 55.17578125 10.1796875 C56.0054541 10.27934814 56.83512695 10.37900879 57.68994141 10.48168945 C58.57601074 10.58054443 59.46208008 10.67939941 60.375 10.78125 C79.99209186 13.35968615 95.35491904 21.96252783 108.25 37.09375 C117.74439188 49.48441092 124.27613193 65.57800605 124.14086914 81.31640625 C124.13499283 82.45779053 124.12911652 83.5991748 124.12306213 84.77514648 C124.11467819 85.99403564 124.10629425 87.2129248 124.09765625 88.46875 C124.10136752 91.06510813 124.1072945 93.66146386 124.11523438 96.2578125 C124.12748001 100.33992264 124.12905573 104.42098123 124.08666992 108.50292969 C124.04678046 112.4503493 124.07110893 116.3961997 124.09765625 120.34375 C124.06382591 122.17208374 124.06382591 122.17208374 124.02931213 124.03735352 C123.96047651 130.20826113 123.96047651 130.20826113 126.80685425 135.41113281 C128.88519001 137.0041591 128.88519001 137.0041591 131.06565857 138.17456055 C135.69388229 141.02933622 137.95059503 146.39000953 139.375 151.46875 C140.91020107 160.26126522 139.56607438 166.8461681 135.3125 174.59375 C130.27889724 180.88575345 125.09734418 184.87208881 117.0625 186.40625 C108.40245037 187.07622519 108.40245037 187.07622519 105.0625 185.40625 C105.10890625 186.1590625 105.1553125 186.911875 105.203125 187.6875 C105.95838241 209.91364676 96.31666767 229.89349921 81.50610352 246.09082031 C76.35447536 251.44459533 70.32348788 255.46451518 64.0625 259.40625 C65.15304688 259.43203125 66.24359375 259.4578125 67.3671875 259.484375 C90.2195894 260.24697475 111.35583421 265.61784497 128.9375 280.90625 C130.8644775 282.61254921 130.8644775 282.61254921 132.76953125 282.2421875 C136.02474273 281.05544941 138.91119236 279.30002504 141.875 277.53125 C145.47674445 275.38669987 148.92699545 273.41795636 152.86328125 271.953125 C156.150442 270.69989122 156.150442 270.69989122 157.5859375 268.1015625 C158.00746094 266.82925781 158.00746094 266.82925781 158.4375 265.53125 C158.73398437 264.68820312 159.03046875 263.84515625 159.3359375 262.9765625 C160.90135914 257.43867304 161.22256042 252.35579457 161.23046875 246.6328125 C161.23379715 245.7908432 161.23712555 244.9488739 161.24055481 244.08139038 C161.2456047 242.30459131 161.24796374 240.5277828 161.24780273 238.75097656 C161.24998698 236.04736537 161.26815704 233.34416399 161.28710938 230.640625 C161.29004424 228.90885555 161.29202841 227.17708418 161.29296875 225.4453125 C161.30374702 224.24341782 161.30374702 224.24341782 161.31474304 223.01724243 C161.29490288 218.08954269 160.59096149 214.09104962 159.0625 209.40625 C158.796875 207.21875 158.796875 207.21875 158.8125 205.40625 C158.80734375 204.808125 158.8021875 204.21 158.796875 203.59375 C159.0625 201.40625 159.0625 201.40625 160.05981445 198.40380859 C161.41671839 193.71376082 161.35976803 189.10943068 161.37109375 184.2578125 C161.39628386 182.26171621 161.42168138 180.26562253 161.44726562 178.26953125 C161.47576723 175.1655363 161.49981446 172.06158732 161.51879883 168.95751953 C161.73886142 138.77267022 167.53453391 111.48549295 188.0625 88.40625 C189.07570313 87.12234375 189.07570313 87.12234375 190.109375 85.8125 C204.61271623 67.94438361 229.94560676 56.54850618 252.4140625 53.69140625 C280.308293 51.5112362 308.46861032 56.9263934 330.8125 74.71875 C332.58424921 76.2565442 334.33417766 77.81980487 336.0625 79.40625 C337.45082031 80.67275391 337.45082031 80.67275391 338.8671875 81.96484375 C359.45156534 101.60838438 370.47926193 128.33619534 371.25195312 156.60888672 C371.28635062 158.4345027 371.31681418 160.26019619 371.34375 162.0859375 C371.38150573 164.08593759 371.41926628 166.08593759 371.45703125 168.0859375 C371.51082151 171.19985052 371.56304025 174.31378608 371.61474609 177.42773438 C371.66648155 180.45971666 371.72367575 183.49156136 371.78125 186.5234375 C371.80161316 187.92189407 371.80161316 187.92189407 371.8223877 189.34860229 C371.83910522 190.21695709 371.85582275 191.08531189 371.87304688 191.97998047 C371.89183899 193.12054398 371.89183899 193.12054398 371.91101074 194.28414917 C372.06436282 196.43234484 372.51268893 198.32897942 373.0625 200.40625 C373.15320579 202.0709681 373.19258286 203.73907033 373.1875 205.40625 C373.19007813 206.251875 373.19265625 207.0975 373.1953125 207.96875 C373.0625 210.40625 373.0625 210.40625 372.56526184 212.30213928 C372.05404283 214.44164416 371.91646876 216.31345249 371.88549805 218.50952148 C371.87266281 219.30813095 371.85982758 220.10674042 371.84660339 220.92955017 C371.83921646 221.78682205 371.83182953 222.64409393 371.82421875 223.52734375 C371.816147 224.42308609 371.80807526 225.31882843 371.79975891 226.24171448 C371.78593698 228.14053425 371.77520638 230.03937867 371.76733398 231.93823242 C371.75587368 233.85920614 371.73551753 235.78014954 371.70581055 237.70092773 C371.42400034 255.93987352 373.68099124 270.01650139 386.3125 284.15625 C392.19697264 290.89035238 392.67785545 296.84978882 392.46875 305.67578125 C391.53137471 314.28341014 387.53479085 319.68548542 380.9296875 325.03125 C379.33994516 326.20193892 377.70520273 327.31111485 376.0625 328.40625 C376.50980469 329.07269531 376.95710938 329.73914063 377.41796875 330.42578125 C387.63868428 346.0074691 392.70011788 361.34257114 392.58007812 379.97314453 C392.58551807 381.35639679 392.59265108 382.73964323 392.60131836 384.12287903 C392.6193158 387.82690269 392.61258842 391.53047324 392.59980202 395.23450327 C392.58957061 399.1305389 392.59909361 403.02653952 392.60534668 406.9225769 C392.61258527 413.45008219 392.60312669 419.97740528 392.58398438 426.50488281 C392.56213128 434.04366557 392.56934289 441.58201695 392.59129 449.12078965 C392.60944378 455.61796924 392.61200522 462.11501913 392.60153532 468.61221588 C392.59531193 472.48270049 392.59443463 476.35298209 392.60768127 480.22345352 C392.61924226 483.85334474 392.61121053 487.48267781 392.58810425 491.11250877 C392.58030607 493.07590852 392.59216445 495.03935557 392.60461426 497.00273132 C392.59333496 498.17432297 392.58205566 499.34591461 392.57043457 500.55300903 C392.56817242 502.0765459 392.56817242 502.0765459 392.56586456 503.63086128 C391.92702932 507.15319132 390.50727989 508.84068444 388.0625 511.40625 C384.90593611 512.98453194 381.51887453 512.54696142 378.05292034 512.54047108 C377.21130054 512.54282331 376.36968074 512.54517554 375.50255731 512.54759905 C372.6515691 512.55431383 369.80062621 512.55383008 366.94963074 512.55342102 C364.8973168 512.5567181 362.84500351 512.56044333 360.79269105 512.5645625 C355.12887809 512.57460826 349.46507572 512.57830342 343.80125511 512.58095181 C337.70229188 512.5848472 331.60333712 512.59442599 325.50437927 512.60316467 C311.46112298 512.6220145 297.41786864 512.63218794 283.37460326 512.64062535 C276.43822504 512.64482937 269.50184769 512.65005167 262.56547021 512.65530988 C238.83161108 512.67320074 215.0977517 512.68819806 191.36388683 512.69563007 C189.87344001 512.69610483 188.38299319 512.69658072 186.89254637 512.69705774 C185.78383207 512.6974123 185.78383207 512.6974123 184.65271949 512.69777403 C180.90772119 512.69897525 177.1627229 512.70019069 173.41772461 512.70141602 C172.30290647 512.70177624 172.30290647 512.70177624 171.16556675 512.70214374 C147.0599571 512.71003956 122.95439662 512.73347685 98.84880844 512.76597196 C73.37587501 512.80024775 47.90297036 512.81997909 22.43001348 512.82327431 C19.63522516 512.82369187 16.84043687 512.82417144 14.04564857 512.82469749 C13.01338034 512.82488228 13.01338034 512.82488228 11.9602582 512.8250708 C0.8721399 512.82740557 -10.21592143 512.84308081 -21.3040194 512.86353934 C-32.44322023 512.88376656 -43.58235345 512.88895519 -54.72157554 512.87976871 C-60.75959856 512.87520704 -66.79743608 512.87721827 -72.83543396 512.89653015 C-78.35800107 512.91404158 -83.8802457 512.91326252 -89.40281566 512.89763286 C-91.40552726 512.89523841 -93.40826049 512.8996744 -95.41093884 512.91146151 C-98.12448899 512.92644907 -100.83687698 512.91699963 -103.55039692 512.90123463 C-104.33565419 512.91145683 -105.12091145 512.92167904 -105.92996439 512.93221101 C-109.64624451 512.88479159 -111.74250134 512.53173733 -114.89919394 510.50031346 C-118.32812083 506.97758905 -118.0677765 504.69656914 -118.08467102 499.86424255 C-118.09018605 498.84449068 -118.09018605 498.84449068 -118.0958125 497.80413777 C-118.10686938 495.51451855 -118.11069676 493.22494469 -118.11450195 490.93530273 C-118.12076577 489.2975856 -118.12741249 487.6598699 -118.13441467 486.02215576 C-118.15549084 480.62806188 -118.16582953 475.23396764 -118.17578125 469.83984375 C-118.17982936 467.97979276 -118.18394629 466.11974192 -118.18813133 464.25969124 C-118.20720133 455.50898907 -118.22142101 446.75829537 -118.2297433 438.00757641 C-118.23948259 427.93424641 -118.2657074 417.86113809 -118.30624419 407.78788608 C-118.33654055 399.98891667 -118.35122545 392.19001022 -118.35452431 384.39098316 C-118.35686209 379.74076928 -118.36565296 375.09079168 -118.39098549 370.4406414 C-118.41450458 366.05175996 -118.41840524 361.66326623 -118.40822411 357.27433777 C-118.40773414 355.67696902 -118.41389204 354.07957964 -118.42778015 352.48227119 C-118.54369258 338.34065639 -116.67320659 324.3084705 -110.1875 311.53125 C-109.84098389 310.82838867 -109.49446777 310.12552734 -109.13745117 309.40136719 C-98.28748038 288.00097221 -79.5806315 272.13460289 -56.9375 264.40625 C-45.39444736 260.98289655 -33.93744235 259.71004601 -21.9375 259.40625 C-22.989375 258.66181641 -22.989375 258.66181641 -24.0625 257.90234375 C-44.67390239 243.14390752 -57.5044074 224.83286422 -62.6875 199.78125 C-63.04266053 194.98658282 -63.01570338 190.21141321 -62.9375 185.40625 C-63.5975 185.73625 -64.2575 186.06625 -64.9375 186.40625 C-74.13973226 187.4179119 -81.95084953 184.89970846 -89.14453125 179.15625 C-95.01850859 173.42304336 -97.09479222 167.36839241 -97.25 159.28125 C-97.25942822 150.53185869 -95.43483063 144.80340267 -89.4375 138.40625 C-86.97532097 135.98883786 -85.27602353 135.14507527 -81.9375 134.40625 C-81.94416183 133.67534653 -81.95082367 132.94444305 -81.95768738 132.19139099 C-82.01830115 125.23537826 -82.0637262 118.27940602 -82.09293652 111.32319546 C-82.10845971 107.74863167 -82.1294468 104.1742897 -82.16381836 100.59985352 C-82.19689725 97.13738452 -82.21445271 93.67512612 -82.22213173 90.21251106 C-82.23020946 88.27697414 -82.25354673 86.34151959 -82.27738953 84.40611267 C-82.28169723 61.21048999 -74.05157731 40.4002497 -57.8125 23.71875 C-41.99870315 8.16449695 -22.10995902 0.17683274 0 0 Z " fill="#FECDBF" transform="translate(118.9375,-0.40625)"/>
<path d="M0 0 C1.12011475 -0.01140015 2.24022949 -0.02280029 3.39428711 -0.0345459 C5.75077593 -0.05334461 8.10731612 -0.06647331 10.46386719 -0.07421875 C14.05236446 -0.09369499 17.63859841 -0.15585498 21.2265625 -0.21875 C23.52602819 -0.23180695 25.8255101 -0.24230912 28.125 -0.25 C29.18775146 -0.2746936 30.25050293 -0.29938721 31.34545898 -0.3248291 C38.71645883 -0.28108342 43.55377216 1.40907442 49.0625 6.40625 C50.0525 7.89125 50.0525 7.89125 51.0625 9.40625 C52.9621299 10.01425133 52.9621299 10.01425133 55.17578125 10.1796875 C56.0054541 10.27934814 56.83512695 10.37900879 57.68994141 10.48168945 C58.57601074 10.58054443 59.46208008 10.67939941 60.375 10.78125 C79.99209186 13.35968615 95.35491904 21.96252783 108.25 37.09375 C117.74439188 49.48441092 124.27613193 65.57800605 124.14086914 81.31640625 C124.13499283 82.45779053 124.12911652 83.5991748 124.12306213 84.77514648 C124.11467819 85.99403564 124.10629425 87.2129248 124.09765625 88.46875 C124.10136752 91.06510813 124.1072945 93.66146386 124.11523438 96.2578125 C124.12748001 100.33992264 124.12905573 104.42098123 124.08666992 108.50292969 C124.04678046 112.4503493 124.07110893 116.3961997 124.09765625 120.34375 C124.06382591 122.17208374 124.06382591 122.17208374 124.02931213 124.03735352 C123.96047651 130.20826113 123.96047651 130.20826113 126.80685425 135.41113281 C128.88519001 137.0041591 128.88519001 137.0041591 131.06565857 138.17456055 C135.69388229 141.02933622 137.95059503 146.39000953 139.375 151.46875 C140.91020107 160.26126522 139.56607438 166.8461681 135.3125 174.59375 C130.27889724 180.88575345 125.09734418 184.87208881 117.0625 186.40625 C108.40245037 187.07622519 108.40245037 187.07622519 105.0625 185.40625 C105.10890625 186.1590625 105.1553125 186.911875 105.203125 187.6875 C105.95604951 209.84499273 96.3705627 230.03181892 81.4753418 246.10400391 C72.43377288 255.40838232 61.88124647 260.52608027 50.0625 265.40625 C50.04848145 266.74417603 50.04848145 266.74417603 50.03417969 268.10913086 C49.98983282 271.45884097 49.92807497 274.80733409 49.85498047 278.15649414 C49.82697537 279.59843472 49.80566032 281.04052298 49.79150391 282.48266602 C49.67586824 293.60296211 48.49256379 302.40724369 40.70703125 310.90234375 C33.63145561 317.37288204 25.98511139 317.85697921 16.7734375 317.69140625 C12.01013316 317.32538392 8.90129465 316.16328955 5.0625 313.40625 C4.175625 312.82875 3.28875 312.25125 2.375 311.65625 C-4.0700608 305.38538004 -7.13137928 298.0541393 -7.3515625 289.13671875 C-7.37092865 288.45571609 -7.3902948 287.77471344 -7.4102478 287.07307434 C-7.46968132 284.91342407 -7.516282 282.75371943 -7.5625 280.59375 C-7.60071328 279.12302456 -7.63976694 277.65232071 -7.6796875 276.18164062 C-7.77535183 272.59004211 -7.85951575 268.99828087 -7.9375 265.40625 C-8.87996582 265.01880615 -9.82243164 264.6313623 -10.79345703 264.23217773 C-12.05254621 263.70589489 -13.31149035 263.17926497 -14.5703125 262.65234375 C-15.1888208 262.39916382 -15.8073291 262.14598389 -16.44458008 261.88513184 C-22.62722131 259.28159357 -27.73478266 255.62310211 -32.9375 251.40625 C-33.99710938 250.59220703 -33.99710938 250.59220703 -35.078125 249.76171875 C-50.05899886 237.64136608 -58.85974243 218.28207823 -62.6875 199.78125 C-63.04266053 194.98658282 -63.01570338 190.21141321 -62.9375 185.40625 C-63.5975 185.73625 -64.2575 186.06625 -64.9375 186.40625 C-74.13973226 187.4179119 -81.95084953 184.89970846 -89.14453125 179.15625 C-95.01850859 173.42304336 -97.09479222 167.36839241 -97.25 159.28125 C-97.25942822 150.53185869 -95.43483063 144.80340267 -89.4375 138.40625 C-86.97532097 135.98883786 -85.27602353 135.14507527 -81.9375 134.40625 C-81.94416183 133.67534653 -81.95082367 132.94444305 -81.95768738 132.19139099 C-82.01830115 125.23537826 -82.0637262 118.27940602 -82.09293652 111.32319546 C-82.10845971 107.74863167 -82.1294468 104.1742897 -82.16381836 100.59985352 C-82.19689725 97.13738452 -82.21445271 93.67512612 -82.22213173 90.21251106 C-82.23020946 88.27697414 -82.25354673 86.34151959 -82.27738953 84.40611267 C-82.28169723 61.21048999 -74.05157731 40.4002497 -57.8125 23.71875 C-41.99870315 8.16449695 -22.10995902 0.17683274 0 0 Z " fill="#FECDBF" transform="translate(118.9375,-0.40625)"/>
<path d="M0 0 C0.89525391 -0.02690918 1.79050781 -0.05381836 2.71289062 -0.08154297 C9.64344886 -0.04166782 14.5731742 2.06194862 20.5 5.5625 C20.50410889 6.44921387 20.50821777 7.33592773 20.51245117 8.24951172 C20.5396599 11.5863899 20.58897821 14.92150337 20.65258789 18.2578125 C20.67557406 19.69292125 20.69011747 21.12819405 20.69555664 22.56347656 C20.74308802 33.049631 21.93006855 41.17232444 28.9375 49.4375 C37.60068971 56.62160854 44.62477033 57.18686078 55.5 56.5625 C60.9978513 55.49487444 65.81492912 52.80970033 69.5 48.5625 C73.64180735 42.20426601 75.59832138 37.12125166 75.81640625 29.48828125 C75.8475779 28.46253242 75.8475779 28.46253242 75.87937927 27.4160614 C75.94466154 25.2358079 76.00366017 23.05543595 76.0625 20.875 C76.10570553 19.39517014 76.14932047 17.91535217 76.19335938 16.43554688 C76.30032083 12.81132378 76.40164823 9.18696811 76.5 5.5625 C83.62060717 1.31581468 89.23912877 -0.23642818 97.5 0 C98.50039307 0.01732178 99.50078613 0.03464355 100.53149414 0.05249023 C123.13122471 0.75968779 142.4798963 8.78188363 159.5 23.5625 C157.96066332 27.36991593 155.66764751 29.41804207 152.60205078 32.10253906 C143.35888851 40.36357787 134.65431007 49.18242624 125.8671875 57.921875 C124.94187351 58.84186531 124.01655952 59.76185562 123.06320572 60.70972443 C119.17115074 64.58024415 115.28049907 68.45216552 111.39352226 72.32778549 C105.88388605 77.82119552 100.36591222 83.30591469 94.83599555 88.77891135 C90.91164894 92.66427144 86.99720337 96.55943912 83.08967507 100.46171212 C80.7716931 102.77608468 78.44866676 105.08495034 76.11736679 107.38591766 C56.44237056 126.81926908 41.46408969 145.87709174 41.25 174.5625 C41.28885561 181.4330489 41.51021975 187.9413347 43.5 194.5625 C43.74492187 195.46355469 43.98984375 196.36460937 44.2421875 197.29296875 C50.16869486 217.14414607 61.78772602 232.0153694 79.78125 242.46875 C88.14358947 246.9135971 96.28663084 249.48497558 105.5 251.5625 C105.5 251.8925 105.5 252.2225 105.5 252.5625 C80.81346803 252.65589572 56.12696249 252.7264559 31.4402895 252.76974869 C19.97811799 252.79038359 8.51605618 252.818522 -2.94604492 252.86425781 C-12.93512936 252.90409706 -22.92413437 252.92992606 -32.91329604 252.93885398 C-38.20367217 252.94407364 -43.49382101 252.95636116 -48.78412437 252.98542023 C-53.76223014 253.01254323 -58.7400147 253.02095126 -63.71818733 253.01493073 C-65.54635742 253.01603235 -67.3745381 253.02400474 -69.20264435 253.0393219 C-71.69735634 253.05920136 -74.19085299 253.05444712 -76.68559265 253.04351807 C-77.41030862 253.05516943 -78.13502459 253.0668208 -78.88170165 253.07882524 C-83.68816707 253.02184459 -86.12559447 251.9708055 -89.5 248.5625 C-90.93527406 245.69195187 -90.63594973 243.23011043 -90.64717102 240.02049255 C-90.65268605 239.00074068 -90.65268605 239.00074068 -90.6583125 237.96038777 C-90.66936938 235.67076855 -90.67319676 233.38119469 -90.67700195 231.09155273 C-90.68326577 229.4538356 -90.68991249 227.8161199 -90.69691467 226.17840576 C-90.71799084 220.78431188 -90.72832953 215.39021764 -90.73828125 209.99609375 C-90.74232936 208.13604276 -90.74644629 206.27599192 -90.75063133 204.41594124 C-90.76970133 195.66523907 -90.78392101 186.91454537 -90.7922433 178.16382641 C-90.80198259 168.09049641 -90.8282074 158.01738809 -90.86874419 147.94413608 C-90.89904055 140.14516667 -90.91372545 132.34626022 -90.91702431 124.54723316 C-90.91936209 119.89701928 -90.92815296 115.24704168 -90.95348549 110.5968914 C-90.97700458 106.20800996 -90.98090524 101.81951623 -90.97072411 97.43058777 C-90.97023414 95.83321902 -90.97639204 94.23582964 -90.99028015 92.63852119 C-91.10619258 78.49690639 -89.23570659 64.4647205 -82.75 51.6875 C-82.40348389 50.98463867 -82.05696777 50.28177734 -81.69995117 49.55761719 C-70.8280779 28.11402193 -52.14824207 12.3567172 -29.5 4.5625 C-19.7829257 1.48762561 -10.18202704 0.17751334 0 0 Z " fill="#FB6671" transform="translate(91.5,259.4375)"/>
<path d="M0 0 C0.33 0 0.66 0 1 0 C1.0093457 1.17393311 1.01869141 2.34786621 1.02832031 3.55737305 C1.06862714 7.9729407 1.13449228 12.38784097 1.20751953 16.80297852 C1.23549578 18.70262993 1.2568246 20.60239271 1.27099609 22.50219727 C1.41368148 40.56141126 3.74788279 54.75509267 16.25 68.75 C22.13447264 75.48410238 22.61535545 81.44353882 22.40625 90.26953125 C21.46887471 98.87716014 17.47229085 104.27923542 10.8671875 109.625 C9.27744516 110.79568892 7.64270273 111.90486485 6 113 C6.44730469 113.66644531 6.89460938 114.33289063 7.35546875 115.01953125 C17.57618428 130.6012191 22.63761788 145.93632114 22.51757812 164.56689453 C22.52301807 165.95014679 22.53015108 167.33339323 22.53881836 168.71662903 C22.5568158 172.42065269 22.55008842 176.12422324 22.53730202 179.82825327 C22.52707061 183.7242889 22.53659361 187.62028952 22.54284668 191.5163269 C22.55008527 198.04383219 22.54062669 204.57115528 22.52148438 211.09863281 C22.49963128 218.63741557 22.50684289 226.17576695 22.52879 233.71453965 C22.54694378 240.21171924 22.54950522 246.70876913 22.53903532 253.20596588 C22.53281193 257.07645049 22.53193463 260.94673209 22.54518127 264.81720352 C22.55674226 268.44709474 22.54871053 272.07642781 22.52560425 275.70625877 C22.51780607 277.66965852 22.52966445 279.63310557 22.54211426 281.59648132 C22.53083496 282.76807297 22.51955566 283.93966461 22.50793457 285.14675903 C22.50567242 286.6702959 22.50567242 286.6702959 22.50336456 288.22461128 C21.86452932 291.74694132 20.44477989 293.43443444 18 296 C15.56630179 297.2168491 14.02342365 297.12424206 11.30295372 297.12304783 C9.80782897 297.1260344 9.80782897 297.1260344 8.28249967 297.12908131 C7.17940509 297.12616847 6.07631051 297.12325563 4.93978882 297.12025452 C3.77426755 297.12110894 2.60874627 297.12196337 1.40790617 297.12284368 C-1.8370384 297.12421031 -5.08194343 297.12106868 -8.32688332 297.11606562 C-11.82245002 297.11175992 -15.31801477 297.11320763 -18.81358337 297.1139679 C-24.87315944 297.11449305 -30.93272476 297.11134709 -36.99229813 297.10573006 C-45.75349736 297.09761397 -54.51469138 297.09499972 -63.27589397 297.09374207 C-77.4892708 297.09155172 -91.70264191 297.0848921 -105.91601562 297.07543945 C-119.72558565 297.06626489 -133.53515411 297.05918427 -147.34472656 297.05493164 C-148.19549486 297.05466892 -149.04626315 297.05440619 -149.9228123 297.05413551 C-154.19073133 297.0528305 -158.45865037 297.05156679 -162.72656941 297.05032361 C-198.15105036 297.03995153 -233.57552465 297.02233368 -269 297 C-265.86187989 295.36107456 -263.10037132 294.52185661 -259.625 293.8125 C-241.71480044 289.44415864 -229.49847592 277.81880652 -216.9296875 265.08984375 C-215.797812 263.95167693 -214.6654058 262.81403765 -213.53250122 261.67689514 C-210.57548586 258.70669776 -207.62411828 255.73095946 -204.67443848 252.753479 C-199.94971564 247.98532628 -195.21807335 243.22406543 -190.48309708 238.46609688 C-188.84562152 236.81853004 -187.21167447 235.16752616 -185.57809448 233.51609802 C-180.75676234 228.65595542 -175.91196017 223.88073837 -170.68289185 219.45289612 C-166.46442473 215.81095412 -162.65312812 211.80512609 -159.06640625 207.546875 C-155.90116249 203.90979366 -152.53950859 200.50547937 -149.09375 197.13671875 C-148.56157364 196.61477432 -148.02939728 196.0928299 -147.48109436 195.55506897 C-145.26841943 193.38748643 -143.05407754 191.22195632 -140.82470703 189.0715332 C-124.21090545 173.01574872 -115.55317412 154.95303536 -113 132 C-112.4328125 132.15597656 -111.865625 132.31195313 -111.28125 132.47265625 C-103.20417679 134.3397879 -96.96122422 132.83341757 -89.71484375 128.92578125 C-84.94247472 125.54048926 -82.5626871 121.1253742 -80 116 C-79.84504237 113.75025839 -79.74989072 111.49628464 -79.68359375 109.2421875 C-79.6524221 108.24761032 -79.6524221 108.24761032 -79.62062073 107.23294067 C-79.55520769 105.11373306 -79.49627895 102.994401 -79.4375 100.875 C-79.39430691 99.43878919 -79.35069236 98.00259098 -79.30664062 96.56640625 C-79.19953501 93.04440406 -79.09824425 89.52226175 -79 86 C-72.38165378 82.4475574 -66.91099527 81.34675173 -59.4375 81.5 C-57.99286377 81.52030273 -57.99286377 81.52030273 -56.51904297 81.54101562 C-41.28565116 81.97661719 -29.24217207 86.81938557 -16 94 C-14.67007224 94.67343476 -13.33869833 95.34417304 -12 96 C-11.39281399 85.12462383 -11.33294181 76.71268851 -18.71484375 67.96875 C-19.90219036 66.65929116 -21.09620121 65.35584348 -22.296875 64.05859375 C-28.02113384 57.13959281 -32.64607279 46.38349457 -32.30078125 37.296875 C-31.76137764 33.17779286 -30.72879338 29.17380193 -29.734375 25.14453125 C-28.86578627 21.42530823 -28.37225225 17.79697291 -28 14 C-26.62328125 13.97873047 -26.62328125 13.97873047 -25.21875 13.95703125 C-17.59711122 13.6608121 -11.79386801 13.23789078 -6 8 C-3.68364077 5.43981349 -1.91380775 2.87071162 0 0 Z " fill="#FB6671" transform="translate(489,215)"/>
<path d="M0 0 C1.15453709 0.94782958 2.30107034 1.90553394 3.4375 2.875 C4.00210938 3.2978125 4.56671875 3.720625 5.1484375 4.15625 C17.87950719 14.06459383 27.02349659 31.51853773 30.03515625 47.24609375 C32.59215198 70.30870574 28.42290172 91.84204555 13.72387695 110.25756836 C8.60860559 116.11350261 2.98131635 121.4916082 -2.5625 126.9375 C-5.04508709 129.3832772 -7.52440664 131.83230016 -10 134.28515625 C-10.58768661 134.86734421 -11.17537323 135.44953217 -11.78086853 136.04936218 C-15.42743616 139.68354437 -18.91773352 143.40216444 -22.25048828 147.3293457 C-23.91403789 149.28913964 -25.67874455 151.12421503 -27.5 152.9375 C-28.08652344 153.52660156 -28.67304688 154.11570312 -29.27734375 154.72265625 C-31.15130991 156.48770814 -33.05813247 158.1496693 -35.01733398 159.81665039 C-39.93488789 164.11318775 -44.49069223 168.75078579 -49.05502701 173.41462326 C-51.14852011 175.55098516 -53.2520498 177.6773555 -55.35488701 179.80451393 C-59.24849727 183.74338419 -63.13815915 187.6859517 -67.01074219 191.64550781 C-69.7255405 194.4204911 -72.45307779 197.18241353 -75.18880844 199.93675613 C-76.21463673 200.97414199 -77.23597808 202.01598912 -78.25220108 203.0627861 C-93.29988101 218.5514949 -111.73723904 228.90538848 -133.76928711 229.25585938 C-156.90337066 229.20940928 -175.95963914 222.1343534 -192.5625 205.875 C-208.40818675 189.3567459 -214.18073278 168.42761668 -213.8359375 146.0546875 C-212.76445663 117.27322622 -193.21826798 98.05803824 -174.03520679 79.01059341 C-171.46327842 76.45387809 -168.8996305 73.88888306 -166.3348999 71.32495117 C-162.03638441 67.03010693 -157.73231204 62.74090047 -153.42431641 58.45556641 C-147.90363823 52.96387097 -142.39235617 47.46284396 -136.88393021 41.9588623 C-132.12715852 37.20607498 -127.36614092 32.45754744 -122.6044302 27.70970917 C-121.082305 26.19166878 -119.56075621 24.67305248 -118.03928375 23.15435791 C-115.20411844 20.32501597 -112.36455034 17.50013321 -109.52441406 14.67578125 C-108.68691116 13.83939621 -107.84940826 13.00301117 -106.98652649 12.14128113 C-103.31581415 8.49756614 -99.67883201 5.02147089 -95.5625 1.875 C-94.92441406 1.21371094 -94.28632813 0.55242187 -93.62890625 -0.12890625 C-69.02699726 -23.89369925 -25.606699 -18.74864281 0 0 Z " fill="#C3D4D7" transform="translate(345.5625,283.125)"/>
<path d="M0 0 C1.12011475 -0.01140015 2.24022949 -0.02280029 3.39428711 -0.0345459 C5.75077593 -0.05334461 8.10731612 -0.06647331 10.46386719 -0.07421875 C14.05236446 -0.09369499 17.63859841 -0.15585498 21.2265625 -0.21875 C23.52602819 -0.23180695 25.8255101 -0.24230912 28.125 -0.25 C29.18775146 -0.2746936 30.25050293 -0.29938721 31.34545898 -0.3248291 C38.71645883 -0.28108342 43.55377216 1.40907442 49.0625 6.40625 C50.0525 7.89125 50.0525 7.89125 51.0625 9.40625 C52.9621299 10.01425133 52.9621299 10.01425133 55.17578125 10.1796875 C56.0054541 10.27934814 56.83512695 10.37900879 57.68994141 10.48168945 C58.57601074 10.58054443 59.46208008 10.67939941 60.375 10.78125 C79.99209186 13.35968615 95.35491904 21.96252783 108.25 37.09375 C117.82675694 49.59190148 124.21002515 65.65953058 124.17602539 81.50341797 C124.17594986 82.68418915 124.17587433 83.86496033 124.17579651 85.08151245 C124.17063522 86.34109772 124.16547394 87.60068298 124.16015625 88.8984375 C124.15803383 90.85005295 124.15803383 90.85005295 124.15586853 92.84109497 C124.15206844 96.28354853 124.14225983 99.72595925 124.13116455 103.168396 C124.12089625 106.68777894 124.11635934 110.20716887 124.11132812 113.7265625 C124.10063509 120.61980916 124.08358911 127.51302752 124.0625 134.40625 C123.14774902 134.08027832 122.23299805 133.75430664 121.29052734 133.41845703 C117.59226537 132.25879933 114.55338245 132.20830882 110.6875 132.28125 C109.44226563 132.29929688 108.19703125 132.31734375 106.9140625 132.3359375 C105.97304687 132.35914063 105.03203125 132.38234375 104.0625 132.40625 C103.77117187 131.51164063 103.47984375 130.61703125 103.1796875 129.6953125 C98.02722583 114.49717084 90.41785693 101.4347606 76.2421875 92.94140625 C68.91651466 89.4045642 60.95221706 87.30301062 53.0625 85.40625 C53.000625 86.52 52.93875 87.63375 52.875 88.78125 C51.69005665 97.72362245 47.19231628 104.13214057 40.3359375 109.78125 C34.54898629 113.9176275 28.38960725 115.52812427 21.31079102 115.53222656 C20.39536026 115.53603333 19.4799295 115.53984009 18.53675842 115.54376221 C17.55654221 115.54478943 16.57632599 115.54581665 15.56640625 115.546875 C13.4589737 115.56521805 11.35155155 115.58478972 9.24414062 115.60546875 C5.94651859 115.63427747 2.64956217 115.65624634 -0.64819336 115.65673828 C-20.6815685 115.67786894 -35.89007905 118.25702107 -51.09375 132.4140625 C-54.3768167 135.97071809 -56.64578513 139.6519177 -58.9375 143.90625 C-61.48529412 148.28063725 -61.48529412 148.28063725 -65.3125 149.34375 C-70.78083995 147.92952415 -75.00536658 146.08946392 -78.38879395 141.39079285 C-82.26925733 134.17490098 -82.64058402 127.92613987 -82.53125 119.83203125 C-82.53129028 118.54999313 -82.53133057 117.26795502 -82.53137207 115.94706726 C-82.52972878 113.24472338 -82.51123016 110.54321894 -82.47949219 107.84106445 C-82.44001175 104.42296993 -82.43571118 101.00596951 -82.4425478 97.58769131 C-82.48162553 68.99018834 -78.53085719 45.00156444 -57.8125 23.71875 C-41.99870315 8.16449695 -22.10995902 0.17683274 0 0 Z " fill="#596D76" transform="translate(118.9375,-0.40625)"/>
<path d="M0 0 C1.77174921 1.5377942 3.52167766 3.10105487 5.25 4.6875 C6.17554688 5.53183594 7.10109375 6.37617187 8.0546875 7.24609375 C27.72459223 26.01695851 39.42906246 52.09308322 40.33621216 79.27032471 C40.3643899 81.94384168 40.36280644 84.61544579 40.34765625 87.2890625 C40.34553383 88.73277725 40.34553383 88.73277725 40.34336853 90.20565796 C40.33782807 93.24130532 40.32528716 96.27687541 40.3125 99.3125 C40.30747729 101.38671768 40.30291574 103.46093652 40.29882812 105.53515625 C40.28787824 110.58596669 40.27065564 115.6367203 40.25 120.6875 C39.62528809 119.89819092 39.00057617 119.10888184 38.35693359 118.2956543 C33.29474887 112.029221 28.38085724 108.24734963 20.20703125 107.35546875 C17.22251925 107.09305562 14.24027056 106.87136777 11.25 106.6875 C11.12625 105.7903125 11.0025 104.893125 10.875 103.96875 C9.63270019 96.45283613 7.81221435 89.94812699 4.375 83.125 C4.04757812 82.47144531 3.72015625 81.81789063 3.3828125 81.14453125 C-3.72202242 67.65644621 -15.8505423 60.68012187 -30.03515625 56.16796875 C-35.88524937 55.109834 -35.88524937 55.109834 -41.75 55.6875 C-44.2724311 57.77633551 -45.74411607 60.31237932 -47.375 63.125 C-48.30815643 64.60136127 -49.24304464 66.0766294 -50.1796875 67.55078125 C-50.62022461 68.26572754 -51.06076172 68.98067383 -51.51464844 69.71728516 C-58.99072094 81.64058656 -67.62548868 88.87144452 -81.38606262 92.25463867 C-85.76785098 93.05698934 -90.15951488 92.96551288 -94.6015625 92.9609375 C-96.69010966 92.98121305 -98.7786513 93.00206356 -100.8671875 93.0234375 C-104.13025618 93.04607719 -107.39310621 93.06253233 -110.65625 93.06835938 C-113.8259129 93.0778836 -116.99461523 93.1116401 -120.1640625 93.1484375 C-121.13606598 93.14339203 -122.10806946 93.13834656 -123.10952759 93.13314819 C-128.94779541 93.21780362 -132.30300425 93.79682809 -136.75 97.6875 C-138.07048087 99.98197341 -138.07048087 99.98197341 -138.625 102.4375 C-138.84929687 103.23671875 -139.07359375 104.0359375 -139.3046875 104.859375 C-139.45164062 105.46265625 -139.59859375 106.0659375 -139.75 106.6875 C-141.09191406 106.69136719 -141.09191406 106.69136719 -142.4609375 106.6953125 C-154.28183143 107.07337947 -160.55556841 110.40249882 -168.75 118.6875 C-168.82518117 112.59011409 -168.8790799 106.49300871 -168.91479492 100.39526367 C-168.92971227 98.3288095 -168.95005341 96.26238601 -168.97631836 94.19604492 C-169.34956365 64.03636162 -163.21528829 36.69627536 -142.75 13.6875 C-142.07453125 12.8315625 -141.3990625 11.975625 -140.703125 11.09375 C-126.19978377 -6.77436639 -100.86689324 -18.17024382 -78.3984375 -21.02734375 C-50.504207 -23.2075138 -22.34388968 -17.7923566 0 0 Z " fill="#FCC16D" transform="translate(449.75,74.3125)"/>
<path d="M0 0 C0.33 0 0.66 0 1 0 C1.0093457 1.17393311 1.01869141 2.34786621 1.02832031 3.55737305 C1.06862714 7.9729407 1.13449228 12.38784097 1.20751953 16.80297852 C1.23549578 18.70262993 1.2568246 20.60239271 1.27099609 22.50219727 C1.41368148 40.56141126 3.74788279 54.75509267 16.25 68.75 C22.13447264 75.48410238 22.61535545 81.44353882 22.40625 90.26953125 C21.46887471 98.87716014 17.47229085 104.27923542 10.8671875 109.625 C9.27744516 110.79568892 7.64270273 111.90486485 6 113 C6.44730469 113.66644531 6.89460938 114.33289063 7.35546875 115.01953125 C17.57618428 130.6012191 22.63761788 145.93632114 22.51757812 164.56689453 C22.52301807 165.95014679 22.53015108 167.33339323 22.53881836 168.71662903 C22.5568158 172.42065269 22.55008842 176.12422324 22.53730202 179.82825327 C22.52707061 183.7242889 22.53659361 187.62028952 22.54284668 191.5163269 C22.55008527 198.04383219 22.54062669 204.57115528 22.52148438 211.09863281 C22.49963128 218.63741557 22.50684289 226.17576695 22.52879 233.71453965 C22.54694378 240.21171924 22.54950522 246.70876913 22.53903532 253.20596588 C22.53281193 257.07645049 22.53193463 260.94673209 22.54518127 264.81720352 C22.55674226 268.44709474 22.54871053 272.07642781 22.52560425 275.70625877 C22.51780607 277.66965852 22.52966445 279.63310557 22.54211426 281.59648132 C22.52519531 283.35386879 22.52519531 283.35386879 22.50793457 285.14675903 C22.50642647 286.16245028 22.50491837 287.17814152 22.50336456 288.22461128 C21.86452932 291.74694132 20.44477989 293.43443444 18 296 C15.0780231 297.46098845 12.50106525 297.11134901 9.2421875 297.09765625 C8.24761032 297.09553383 8.24761032 297.09553383 7.23294067 297.09336853 C5.11358137 297.08776754 2.99432741 297.075215 0.875 297.0625 C-0.56119639 297.05748512 -1.99739444 297.05292219 -3.43359375 297.04882812 C-6.95576345 297.03779782 -10.47787145 297.02053259 -14 297 C-14.00238835 296.26561392 -14.00477671 295.53122784 -14.00723743 294.77458763 C-14.0665386 276.85243586 -14.14218447 258.93042002 -14.23571491 241.00841331 C-14.28055824 232.34123328 -14.31999891 223.67409328 -14.34643555 215.00683594 C-14.36950893 207.4468199 -14.40300999 199.8869318 -14.44870156 192.32701743 C-14.47250869 188.32920262 -14.49131895 184.33151353 -14.49761391 180.33362961 C-14.50372202 176.55951177 -14.52392422 172.78571507 -14.55427551 169.01171684 C-14.56706298 166.98910655 -14.56550158 164.96642086 -14.5632782 162.94377136 C-14.67909539 151.49614931 -16.36010855 140.27697573 -21.1875 129.8125 C-21.49010742 129.14452393 -21.79271484 128.47654785 -22.10449219 127.78833008 C-30.82180112 109.2361657 -46.40800149 96.06703664 -65 88 C-67.32913905 87.19857581 -69.60114497 86.57363925 -72 86 C-71.34 84.68 -70.68 83.36 -70 82 C-49.23941755 81.2536295 -34.25035584 84.10368028 -16 94 C-14.67007224 94.67343476 -13.33869833 95.34417304 -12 96 C-11.39281399 85.12462383 -11.33294181 76.71268851 -18.71484375 67.96875 C-19.90219036 66.65929116 -21.09620121 65.35584348 -22.296875 64.05859375 C-28.02113384 57.13959281 -32.64607279 46.38349457 -32.30078125 37.296875 C-31.76137764 33.17779286 -30.72879338 29.17380193 -29.734375 25.14453125 C-28.86578627 21.42530823 -28.37225225 17.79697291 -28 14 C-26.62328125 13.97873047 -26.62328125 13.97873047 -25.21875 13.95703125 C-17.59711122 13.6608121 -11.79386801 13.23789078 -6 8 C-3.68364077 5.43981349 -1.91380775 2.87071162 0 0 Z " fill="#FA4A59" transform="translate(489,215)"/>
<path d="M0 0 C0.99 0.495 0.99 0.495 2 1 C-25.39 28.39 -52.78 55.78 -81 84 C-50.97 84 -20.94 84 10 84 C8.68 81.36 7.36 78.72 6 76 C0.76078622 63.60574053 2.15152466 50.65034348 7.03125 38.4140625 C11.98544783 27.53491187 19.63413948 20.68355421 30 15 C30.721875 14.56429688 31.44375 14.12859375 32.1875 13.6796875 C42.15300605 8.5901612 57.20192862 9.42090857 67.6875 12.5625 C81.49401047 18.1910064 90.87921162 28.38057482 96.90625 41.82421875 C101.04346778 53.83692608 100.19866424 67.52096188 95 79 C89.10999382 90.97169894 80.21600616 99.47976989 67.70703125 104.2578125 C56.23066918 107.90069768 45.27973498 108.62221855 34 104 C33.21483002 103.49434006 32.42966003 102.98868011 31.62069702 102.46769714 C26.34360544 100.32855868 21.396391 100.56062417 15.75244141 100.56762695 C14.52261536 100.5574353 13.29278931 100.54724365 12.0256958 100.53674316 C8.66652677 100.51178335 5.30779454 100.49989788 1.94857073 100.49388909 C-1.56687557 100.48448805 -5.08219627 100.45828332 -8.5975647 100.43388367 C-15.24845855 100.39026241 -21.89932797 100.36168867 -28.55032122 100.33856028 C-36.12475385 100.31148508 -43.69905986 100.26757506 -51.27340198 100.22227156 C-66.84886951 100.12948799 -82.4243609 100.05777858 -98 100 C-93.53111393 93.59548111 -88.41046616 88.13594458 -82.87353516 82.64648438 C-81.52622818 81.29873932 -81.52622818 81.29873932 -80.15170288 79.92376709 C-77.71031069 77.48180555 -75.26284088 75.04602165 -72.81415987 72.61137199 C-70.24809566 70.05788553 -67.68776612 67.49866163 -65.12680054 64.94006348 C-60.28610448 60.10556161 -55.440337 55.27617683 -50.59268701 50.44864893 C-45.06993373 44.94831909 -39.55291845 39.44224895 -34.03635716 33.93570995 C-22.69723849 22.61744655 -11.35100241 11.30634602 0 0 Z " fill="#FECEC0" transform="translate(245,289)"/>
<path d="M0 0 C10.44179754 8.8000985 18.73551828 20.34598916 20.24365234 34.24560547 C21.44801083 51.08975645 18.22928187 64.9063972 7 78 C6.45601563 78.65484375 5.91203125 79.3096875 5.3515625 79.984375 C-2.92124143 89.10463689 -15.08704563 94.76769694 -27.33203125 95.46875 C-29.1585694 95.50264486 -30.98569055 95.5125576 -32.8125 95.5 C-34.25435669 95.49250732 -34.25435669 95.49250732 -35.7253418 95.48486328 C-47.50810211 95.19716433 -56.6574009 91.15407687 -66 84 C-66.61359375 83.55011719 -67.2271875 83.10023438 -67.859375 82.63671875 C-77.56999603 75.01001418 -83.93982334 63.07789067 -86 51 C-86.25499268 49.86804199 -86.50998535 48.73608398 -86.77270508 47.56982422 C-87.65611515 42.62924979 -88.44199194 37.64641754 -85.95248413 33.07754517 C-82.38998199 28.37601546 -77.92227202 24.55563647 -73.5 20.6875 C-70.93080619 18.35551687 -68.3844048 15.99972827 -65.84375 13.63671875 C-65.23273438 13.07443573 -64.62171875 12.51215271 -63.9921875 11.93283081 C-58.36894666 6.64957792 -54.20868907 0.78881091 -50.97070312 -6.23168945 C-49.52088845 -8.87278797 -47.83473646 -9.16246423 -45 -10 C-28.68342752 -13.09923723 -13.48900762 -9.77112324 0 0 Z " fill="#FA9928" transform="translate(418,386)"/>
<path d="M0 0 C0.99 0.495 0.99 0.495 2 1 C13.0706488 19.61881844 17.92934179 41.22220563 13.08203125 62.73828125 C9.9626585 74.144151 4.54264921 84.90602577 -3 94 C-3.33 93.34 -3.66 92.68 -4 92 C-3.28698713 90.01167955 -2.4798173 88.05660372 -1.625 86.125 C3.14535291 75.27844338 3.84917845 62.38017978 0 51 C-5.68682186 37.66006533 -14.60096837 28.6347557 -27.98510742 23.19287109 C-33.80807107 21.03165204 -39.12548191 20.45463231 -45.3125 20.5 C-46.23530762 20.50644531 -47.15811523 20.51289063 -48.10888672 20.51953125 C-60.99069436 20.86371033 -71.95313688 26.57989202 -80.84375 35.94140625 C-90.08330145 47.60869698 -93.31063518 60.28298814 -92 75 C-90.48146402 81.8521131 -88.14110303 87.71779394 -85 94 C-115.69 94 -146.38 94 -178 94 C-171.25049847 86.12558155 -171.25049847 86.12558155 -168.29951477 83.19271851 C-167.29656876 82.19204597 -167.29656876 82.19204597 -166.27336121 81.17115784 C-165.56093765 80.46547165 -164.8485141 79.75978546 -164.11450195 79.03271484 C-163.3479126 78.26919205 -162.58132324 77.50566925 -161.79150391 76.7190094 C-160.13770258 75.07232605 -158.48277726 73.42677093 -156.82683754 71.78223801 C-154.20579684 69.17866964 -151.5883866 66.57150173 -148.9719696 63.96328735 C-141.53626559 56.55197174 -134.09490893 49.14635079 -126.64916992 41.74511719 C-122.08633302 37.20905257 -117.52837039 32.66813738 -112.97337914 28.1241951 C-111.23891686 26.39593963 -109.50255953 24.66958386 -107.7642765 22.94517136 C-105.33738592 20.53748539 -102.91670744 18.12371264 -100.49731445 15.70849609 C-99.77881821 14.99876144 -99.06032196 14.28902679 -98.3200531 13.55778503 C-94.98086034 10.2119957 -92.32700173 7.14891598 -90 3 C-83.07802697 -2.21332331 -75.26001363 -6.37757236 -67 -9 C-66.09765625 -9.29777344 -65.1953125 -9.59554688 -64.265625 -9.90234375 C-41.42578318 -16.3223511 -20.17664116 -10.99400522 0 0 Z " fill="#F4F6F7" transform="translate(341,280)"/>
<path d="M0 0 C12.58315118 -0.49379078 24.48946383 3.00236941 35.38671875 9.19921875 C31.69147381 13.65187414 27.86112291 17.74743613 23.67724609 21.74047852 C8.15444247 36.64110707 -4.0905747 54.72880815 -4.79296875 76.90625 C-4.95803355 85.47439525 -5.09965562 93.92559369 -2.61328125 102.19921875 C-2.36835938 103.10027344 -2.1234375 104.00132812 -1.87109375 104.9296875 C1.08466397 114.830168 5.88823454 125.10141911 12.38671875 133.19921875 C0.46369597 133.6388707 -10.44355895 133.99483303 -21.61328125 129.19921875 C-22.60199219 128.79832031 -23.59070313 128.39742187 -24.609375 127.984375 C-40.27970009 120.95412512 -51.64096728 108.73390426 -58.48828125 93.07421875 C-59.22088459 91.12483477 -59.93069465 89.16667424 -60.61328125 87.19921875 C-60.93167969 86.36519531 -61.25007813 85.53117187 -61.578125 84.671875 C-66.88994421 68.78537422 -63.75093507 51.75955632 -56.86328125 36.94921875 C-47.68201507 19.64517824 -32.44569553 8.14335684 -14.05078125 2.01171875 C-9.35000228 0.90062554 -4.79675945 0.36567224 0 0 Z " fill="#FBB34D" transform="translate(137.61328125,351.80078125)"/>
<path d="M0 0 C1.71068665 0.04450287 1.71068665 0.04450287 3.45593262 0.08990479 C4.67305435 0.08201935 5.89017609 0.07413391 7.1441803 0.06600952 C10.4688745 0.05491107 13.78729891 0.08825341 17.11117244 0.14296961 C20.59870731 0.19082305 24.0861852 0.18474124 27.57398987 0.18557739 C33.43105812 0.19482101 39.28682242 0.24200637 45.14343262 0.31451416 C51.89931557 0.39793676 58.6540251 0.43314196 65.41039366 0.43975365 C72.62320929 0.44697415 79.83560723 0.48475507 87.04824758 0.5339942 C89.11724409 0.54640635 91.18620872 0.5537073 93.25523186 0.56006241 C97.12330673 0.5741447 100.99052821 0.62301769 104.85827637 0.67584229 C105.9967099 0.67717163 107.13514343 0.67850098 108.30807495 0.67987061 C114.13833962 0.7894919 118.49204432 1.29492877 123.54634953 4.31310844 C130.51190506 8.36878132 140.68123643 8.64739907 148.32434082 6.77301025 C151.22403605 5.92343452 154.08442413 4.99942189 156.92883301 3.97979736 C161.94770744 2.19727048 161.94770744 2.19727048 165.22180176 3.28863525 C157.26017904 16.79258103 146.01104449 32.16089746 130.30447674 36.86257648 C108.1155628 42.12680269 83.37832763 39.6074035 60.81069529 38.6655134 C51.68061474 38.29130283 42.54957255 38.11389629 33.4136914 37.94931424 C14.67438926 37.60749956 -4.05064776 37.0300064 -22.77819824 36.28863525 C-22.64065772 34.70291841 -22.49705863 33.11772641 -22.35095215 31.53277588 C-22.27164459 30.64996948 -22.19233704 29.76716309 -22.11062622 28.85760498 C-21.63403069 25.17452305 -20.55520351 22.23741826 -19.15319824 18.78863525 C-18.68655762 17.60269775 -18.21991699 16.41676025 -17.73913574 15.19488525 C-17.10867752 13.88141797 -16.45228471 12.5802549 -15.77819824 11.28863525 C-15.3516265 10.45478239 -14.92505476 9.62092953 -14.4855566 8.7618084 C-10.54651446 2.11221681 -7.73032872 0.14264404 0 0 Z " fill="#F4F6F7" transform="translate(155.7781982421875,387.71136474609375)"/>
<path d="M0 0 C17.73320607 -0.9172348 35.09707628 5.83760326 48.59375 17.1796875 C62.45954398 30.23236393 72.11937737 48.97453579 73.17411804 68.1685791 C73.23003057 71.74169419 73.22508547 75.30938828 73.1953125 78.8828125 C73.1924826 80.17822968 73.18965271 81.47364685 73.18673706 82.80831909 C73.17917608 86.21789565 73.15959446 89.6272962 73.1373291 93.0368042 C73.11670627 96.52972026 73.10770055 100.02266534 73.09765625 103.515625 C73.07633973 110.34382136 73.04229736 117.17190218 73 124 C72.08524902 123.67402832 71.17049805 123.34805664 70.22802734 123.01220703 C66.52976537 121.85254933 63.49088245 121.80205882 59.625 121.875 C58.37976563 121.89304687 57.13453125 121.91109375 55.8515625 121.9296875 C54.44003906 121.96449219 54.44003906 121.96449219 53 122 C52.56300781 120.65808594 52.56300781 120.65808594 52.1171875 119.2890625 C46.96472583 104.09092084 39.35535693 91.0285106 25.1796875 82.53515625 C17.83016516 78.98679964 9.89281735 76.97320434 2 75 C2 61.47 2 47.94 2 34 C13.75052464 37.91684155 21.14139099 43.07618935 29.0625 52.4375 C31.7710137 54.62178524 33.61206682 54.36041842 37 54 C37.99 53.67 38.98 53.34 40 53 C40.94665648 48.15101512 40.91711253 44.47894723 38.265625 40.203125 C28.42496168 28.81882822 16.23552248 22.305272 2 18 C1.93941406 17.11957031 1.87882813 16.23914063 1.81640625 15.33203125 C1.73261719 14.17058594 1.64882812 13.00914063 1.5625 11.8125 C1.48128906 10.66394531 1.40007812 9.51539063 1.31640625 8.33203125 C1.04596188 5.48401829 0.62478253 2.78789518 0 0 Z " fill="#7A8D98" transform="translate(170,10)"/>
<path d="M0 0 C2.76306043 2.20021478 5.39026418 4.48276115 7.9921875 6.87109375 C8.91773438 7.71542969 9.84328125 8.55976562 10.796875 9.4296875 C30.46677973 28.20055226 42.17124996 54.27667697 43.07839966 81.45391846 C43.1065774 84.12743543 43.10499394 86.79903954 43.08984375 89.47265625 C43.0884288 90.43513275 43.08701385 91.39760925 43.08555603 92.38925171 C43.08001557 95.42489907 43.06747466 98.46046916 43.0546875 101.49609375 C43.04966479 103.57031143 43.04510324 105.64453027 43.04101562 107.71875 C43.03006574 112.76956044 43.01284314 117.82031405 42.9921875 122.87109375 C42.36747559 122.08178467 41.74276367 121.29247559 41.09912109 120.47924805 C36.03693637 114.21281475 31.12304474 110.43094338 22.94921875 109.5390625 C19.96470675 109.27664937 16.98245806 109.05496152 13.9921875 108.87109375 C13.79882812 107.84628906 13.60546875 106.82148438 13.40625 105.765625 C13.14348887 104.40489774 12.88045352 103.04422342 12.6171875 101.68359375 C12.49085938 101.01005859 12.36453125 100.33652344 12.234375 99.64257812 C11.67395694 96.77043554 11.0964889 94.10976884 9.921875 91.421875 C8.57604725 87.7293308 8.61080705 84.14794564 8.4921875 80.24609375 C7.41288421 56.374866 -1.03183485 36.30516078 -16.0078125 17.87109375 C-16.88566406 16.76314453 -16.88566406 16.76314453 -17.78125 15.6328125 C-32.53925417 -2.20843667 -55.6982026 -12.64588771 -78.0078125 -17.12890625 C-78.0078125 -17.45890625 -78.0078125 -17.78890625 -78.0078125 -18.12890625 C-51.38173989 -23.46279376 -21.91343561 -15.51015897 0 0 Z " fill="#FCA630" transform="translate(447.0078125,72.12890625)"/>
<path d="M0 0 C32.01 0 64.02 0 97 0 C97 13.2 97 26.4 97 40 C91.44605909 43.47121307 87.71918869 45.73084338 81.8125 47.75 C80.64332031 48.15734375 79.47414063 48.5646875 78.26953125 48.984375 C70.99799078 51.24315699 64.07029136 51.25323363 56.5 51.3125 C55.29601562 51.34150391 54.09203125 51.37050781 52.8515625 51.40039062 C41.8604731 51.47721007 32.13937623 49.02954342 22.4375 43.875 C21.48746094 43.37742187 20.53742188 42.87984375 19.55859375 42.3671875 C18.71425781 41.91601562 17.86992187 41.46484375 17 41 C16.31035156 40.7525 15.62070313 40.505 14.91015625 40.25 C11.89096497 38.27425111 10.59508432 35.25749634 9 32.125 C8.65187256 31.45170654 8.30374512 30.77841309 7.94506836 30.0847168 C2.86747984 20.02821451 0.95992855 11.51914258 0 0 Z " fill="#F4F6F7" transform="translate(132,440)"/>
<path d="M0 0 C10.22464883 1.30240768 19.2127304 7.39729872 26 15 C27.76677856 17.31274778 29.40372964 19.69198017 31 22.125 C31.38623535 22.71087891 31.7724707 23.29675781 32.17041016 23.90039062 C34.46169381 27.5772221 35.58107495 30.69292682 36 35 C34.2984375 35.7115625 34.2984375 35.7115625 32.5625 36.4375 C29.24259834 37.63622083 29.24259834 37.63622083 28 39 C27.84806837 41.12119924 27.77816486 43.24855315 27.75 45.375 C27.72421875 46.53773438 27.6984375 47.70046875 27.671875 48.8984375 C27.74550345 51.94774627 27.74550345 51.94774627 29.28515625 53.87109375 C31.99251095 55.6533842 34.82940341 55.70088711 38 56 C38.33815771 61.55442019 37.32840455 65.74427224 35.0625 70.75 C34.59324097 71.79498657 34.59324097 71.79498657 34.11450195 72.86108398 C28.05489534 85.73830431 18.29592564 94.96629512 5.07421875 100.2734375 C-2.6124895 102.96595677 -7.83511316 101.36043284 -15 98 C-18.17253412 96.20223067 -21.09374719 94.19902779 -24 92 C-24.92425781 91.32324219 -24.92425781 91.32324219 -25.8671875 90.6328125 C-30.86796646 86.69886638 -35.14066343 81.69986172 -38 76 C-37.37836233 70.67556778 -33.14406334 67.5118645 -29.5625 63.875 C-28.88767578 63.14667969 -28.21285156 62.41835938 -27.51757812 61.66796875 C-22.96121 57.03016036 -19.59991043 55.08175911 -13.08178711 54.45361328 C-10.60982889 54.16752849 -10.60982889 54.16752849 -9 51 C-8.98575466 49.01989798 -9.06055185 47.03857973 -9.1875 45.0625 C-9.29805803 38.81597123 -7.91274701 34.69695462 -5.30859375 29.09765625 C-1.44593175 19.95410112 -0.52199874 9.82797626 0 0 Z " fill="#FBB34C" transform="translate(376,378)"/>
<path d="M0 0 C4.53476891 -0.14958639 9.06806783 -0.25778439 13.60473633 -0.32958984 C15.14405364 -0.35955458 16.68320325 -0.40034291 18.22192383 -0.45263672 C33.60438226 -0.96189045 33.60438226 -0.96189045 40.38085938 4.30395508 C45.40933023 9.57126314 46.21137444 14.95539715 46.25 22.0625 C46.18649798 24.04240218 46.110051 26.02213906 46 28 C47.2375 28.20625 48.475 28.4125 49.75 28.625 C63.32706327 31.69422623 77.40222496 41.23371595 85 53 C85.91880657 56.20447971 85.69049105 57.60508567 85 61 C83.375 63.5 83.375 63.5 81 65 C78.0625 65.5625 78.0625 65.5625 75 65 C72.53418084 62.92352071 70.53325732 60.63963602 68.47265625 58.16796875 C64.08824915 53.30386722 59.53928686 50.52993524 53.70703125 47.73828125 C52.96505493 47.37561157 52.22307861 47.01294189 51.45861816 46.63928223 C49.64238084 45.75272453 47.82163464 44.87541406 46 44 C46.00888245 44.55408539 46.01776489 45.10817078 46.0269165 45.67904663 C46.11595462 51.48725993 46.17596638 57.29527689 46.21972656 63.10400391 C46.2397439 65.26684454 46.2669663 67.42963173 46.30175781 69.59228516 C46.35071247 72.71530406 46.37306817 75.8376026 46.390625 78.9609375 C46.41127014 79.91551849 46.43191528 80.87009949 46.45318604 81.85360718 C46.45600067 90.4263164 44.20913407 98.32047421 38.375 104.8125 C37.78460938 105.49957031 37.19421875 106.18664062 36.5859375 106.89453125 C27.54224771 114.25789801 19.03850851 114.65222551 7.875 114.3125 C6.42712223 114.28736323 4.97920199 114.26455962 3.53125 114.24414062 C0.01993574 114.18962189 -3.48975195 114.10365533 -7 114 C-6.37907471 113.69078613 -5.75814941 113.38157227 -5.1184082 113.06298828 C4.04730164 108.46376036 10.75464105 103.05666351 14.35956001 93.17701721 C15.33963559 89.84549288 15.3897569 86.70367126 15.40405273 83.2421875 C15.41091599 82.51259827 15.41777924 81.78300903 15.42485046 81.03131104 C15.4429896 78.64566994 15.43930029 76.2606945 15.43359375 73.875 C15.43816123 72.20165801 15.44346848 70.5283179 15.44947815 68.85498047 C15.45838352 65.35832061 15.45601501 61.86188947 15.44604492 58.36523438 C15.43454886 53.89987907 15.4547892 49.43531385 15.48396206 44.97006226 C15.50236707 41.51777188 15.50202324 38.06566945 15.49632454 34.61334229 C15.4961719 32.96761973 15.50216839 31.32188398 15.51461601 29.6762085 C15.73022713 17.73773101 15.73022713 17.73773101 11 7 C7.6584529 3.6584529 4.52766734 2.26353507 0 1 C0 0.67 0 0.34 0 0 Z " fill="#475A61" transform="translate(126,0)"/>
<path d="M0 0 C16.25882084 8.63749857 25.16772666 25.55719934 31.1640625 42.23828125 C36.75622675 62.38575151 32.76829022 83.03135213 23.29296875 101.18359375 C21.22521098 104.78131461 18.79305828 107.95155925 16.21509361 111.19690895 C14.59468541 113.24745512 13.01300965 115.31088538 11.44553566 117.40088463 C1.91424653 129.90449534 -8.8103089 143.09951802 -25.13442993 145.55703735 C-35.81690586 146.78674787 -46.59692319 146.37009484 -57.31659722 145.9404242 C-62.70319695 145.75633605 -68.09052246 145.74189084 -73.4797821 145.70768738 C-83.63702357 145.61833343 -93.78497093 145.38153729 -103.93815821 145.08855218 C-115.51648716 144.76185895 -127.09531429 144.60434089 -138.6771208 144.45938456 C-162.45652375 144.1580578 -186.22773655 143.64961185 -210 143 C-210 142.67 -210 142.34 -210 142 C-209.23066887 142.02434364 -208.46133774 142.04868729 -207.66869354 142.07376862 C-188.79035916 142.65972638 -169.91591824 143.06106667 -151.02951813 143.26683807 C-141.89439316 143.3706412 -132.76791627 143.5335397 -123.63720703 143.84130859 C-79.5740707 147.44303942 -79.5740707 147.44303942 -40.46327972 131.69763947 C-33.07251105 124.65693917 -25.27598396 115.82795189 -22 106 C-20.3984375 104.67578125 -20.3984375 104.67578125 -18.375 103.3125 C-14.52646431 100.54485895 -11.60339742 97.49065649 -8.58203125 93.85546875 C-7 92 -7 92 -4.5 89.75 C3.54889486 80.89621565 6.84625616 70.24661542 10 59 C10.33 58.01 10.66 57.02 11 56 C12.35045274 37.82942549 11.0918273 21.54829062 2.26953125 5.35546875 C1 3 1 3 0 0 Z " fill="#D9E6EA" transform="translate(343,282)"/>
<path d="M0 0 C0.33 0 0.66 0 1 0 C1.01401855 1.76089966 1.01401855 1.76089966 1.02832031 3.55737305 C1.06862714 7.9729407 1.13449228 12.38784097 1.20751953 16.80297852 C1.23549578 18.70262993 1.2568246 20.60239271 1.27099609 22.50219727 C1.41368148 40.56141126 3.74788279 54.75509267 16.25 68.75 C22.13447264 75.48410238 22.61535545 81.44353882 22.40625 90.26953125 C21.47647179 98.80739843 17.45660301 104.24383814 11.0625 109.72265625 C8.47955004 111.32232412 7.07282481 112.05022448 4 112 C1.71522263 110.13855194 -0.10847922 108.41294124 -2.0625 106.25 C-3.09281262 105.14894182 -4.12531345 104.04992654 -5.16015625 102.953125 C-5.64363525 102.4264624 -6.12711426 101.8997998 -6.62524414 101.35717773 C-8.04815027 99.84032178 -8.04815027 99.84032178 -10.375 98.61328125 C-12 97 -12 97 -12.21484375 93.33984375 C-12.13331083 91.87174893 -12.04026672 90.4042614 -11.9375 88.9375 C-11.56910235 78.04050398 -14.97108495 71.97363213 -22.296875 64.05859375 C-28.02113384 57.13959281 -32.64607279 46.38349457 -32.30078125 37.296875 C-31.76137764 33.17779286 -30.72879338 29.17380193 -29.734375 25.14453125 C-28.86578627 21.42530823 -28.37225225 17.79697291 -28 14 C-26.62328125 13.97873047 -26.62328125 13.97873047 -25.21875 13.95703125 C-17.59711122 13.6608121 -11.79386801 13.23789078 -6 8 C-3.68364077 5.43981349 -1.91380775 2.87071162 0 0 Z " fill="#FCA630" transform="translate(489,215)"/>
<path d="M0 0 C0.66 0 1.32 0 2 0 C2.02578125 0.93199219 2.0515625 1.86398437 2.078125 2.82421875 C2.43598097 10.86784491 3.46924475 17.64844681 6.2578125 25.29296875 C7.08513305 28.31051159 7.14213659 29.14247015 6 32 C4.33383242 33.9290151 2.67430173 35.6843467 0.85351562 37.45532227 C0.31852951 37.98753387 -0.2164566 38.51974548 -0.76765442 39.06808472 C-2.53630088 40.82445275 -4.31510102 42.57017358 -6.09375 44.31640625 C-7.32383395 45.53581436 -8.55311213 46.75603578 -9.78161621 47.97703552 C-13.01695604 51.18958512 -16.26031671 54.3938981 -19.50628662 57.59570312 C-24.70353807 62.7227881 -29.89332713 67.85732781 -35.0740509 73.00111198 C-36.88725056 74.79758211 -38.70673552 76.58751144 -40.5267334 78.37709045 C-41.63592231 79.47582047 -42.74486327 80.57480086 -43.85351562 81.67407227 C-44.36263992 82.17129288 -44.87176422 82.66851349 -45.39631653 83.18080139 C-47.68259357 85.45924114 -48.96214495 86.88643486 -50 90 C-69.8 90 -89.6 90 -110 90 C-106.57552151 88.28776076 -104.28177396 87.55888263 -100.625 86.8125 C-82.71480044 82.44415864 -70.49847592 70.81880652 -57.9296875 58.08984375 C-56.797812 56.95167693 -55.6654058 55.81403765 -54.53250122 54.67689514 C-51.57548586 51.70669776 -48.62411828 48.73095946 -45.67443848 45.753479 C-40.94971564 40.98532628 -36.21807335 36.22406543 -31.48309708 31.46609688 C-29.84562152 29.81853004 -28.21167447 28.16752616 -26.57809448 26.51609802 C-21.76486955 21.66412637 -16.92956919 16.8954681 -11.70730591 12.47731018 C-7.87292553 9.1594694 -4.21537265 5.63446666 -1.1875 1.5625 C-0.795625 1.046875 -0.40375 0.53125 0 0 Z " fill="#FA4B5A" transform="translate(330,422)"/>
<path d="M0 0 C1.57055634 0.30865768 3.14080941 0.61885865 4.7109375 0.9296875 C6.02263916 1.18854736 6.02263916 1.18854736 7.36083984 1.45263672 C9.79794074 1.9580928 12.20844609 2.53038095 14.625 3.125 C28.61609596 5.85763593 42.37995796 3.44212234 56 0 C56.09981078 4.25001966 56.17190512 8.49939595 56.21972656 12.75024414 C56.23968751 14.19242252 56.26686663 15.6345216 56.30175781 17.07641602 C56.56643873 28.30589331 55.51267922 36.91084875 47.64453125 45.49609375 C40.56895561 51.96663204 32.92261139 52.45072921 23.7109375 52.28515625 C18.94763316 51.91913392 15.83879465 50.75703955 12 48 C10.6696875 47.13375 10.6696875 47.13375 9.3125 46.25 C4.2409389 41.31550811 0.24750072 34.72076089 -0.22705078 27.58666992 C-0.21657715 26.31412354 -0.20610352 25.04157715 -0.1953125 23.73046875 C-0.1924826 23.04946609 -0.18965271 22.36846344 -0.18673706 21.66682434 C-0.17560525 19.50686545 -0.15051457 17.34733206 -0.125 15.1875 C-0.11496111 13.71680289 -0.10583685 12.24609924 -0.09765625 10.77539062 C-0.07568913 7.18345714 -0.0412082 3.59177015 0 0 Z " fill="#FCAF9F" transform="translate(112,265)"/>
<path d="M0 0 C22.11 0 44.22 0 67 0 C63.37175913 4.23294768 59.88649394 8.24401997 55.99536133 12.18164062 C55.53422943 12.64934372 55.07309753 13.11704681 54.59799194 13.59892273 C53.09550092 15.12086226 51.58925051 16.63899357 50.08203125 18.15625 C49.29998605 18.94440849 49.29998605 18.94440849 48.50214195 19.74848938 C45.74322609 22.52814244 42.98113151 25.30459291 40.21655273 28.07861328 C37.38860916 30.91761143 34.57254779 33.76809818 31.7589922 36.62134552 C29.56845929 38.838226 27.36889256 41.04598113 25.16693687 43.25151062 C24.12592629 44.29733822 23.08824396 45.34649139 22.05423927 46.39924622 C15.6261105 52.93666471 9.10856845 58.59505121 1 63 C0.67 63 0.34 63 0 63 C0 42.21 0 21.42 0 0 Z " fill="#D9E6EA" transform="translate(245,440)"/>
<path d="M0 0 C0.99 0.495 0.99 0.495 2 1 C-25.39 28.39 -52.78 55.78 -81 84 C-51.12775261 83.93316987 -51.12775261 83.93316987 -21.25610352 83.75732422 C-15.45690918 83.77563477 -15.45690918 83.77563477 -12.73545837 83.79690552 C-10.84915049 83.80227946 -8.96272146 83.78811243 -7.0766449 83.75808716 C8.88856899 83.52559406 8.88856899 83.52559406 14.1736145 87.21612549 C16.40020085 89.70250789 18.16866091 92.22006724 20 95 C21.92641389 96.57838947 23.85169217 97.73304923 26 99 C26 99.33 26 99.66 26 100 C-14.92 100 -55.84 100 -98 100 C-91.25 91 -91.25 91 -87.78579712 87.54528809 C-87.00344696 86.7601886 -86.2210968 85.97508911 -85.41503906 85.16619873 C-84.57634277 84.33469299 -83.73764648 83.50318726 -82.87353516 82.64648438 C-81.52622818 81.29873932 -81.52622818 81.29873932 -80.15170288 79.92376709 C-77.71031069 77.48180555 -75.26284088 75.04602165 -72.81415987 72.61137199 C-70.24809566 70.05788553 -67.68776612 67.49866163 -65.12680054 64.94006348 C-60.28610448 60.10556161 -55.440337 55.27617683 -50.59268701 50.44864893 C-45.06993373 44.94831909 -39.55291845 39.44224895 -34.03635716 33.93570995 C-22.69723849 22.61744655 -11.35100241 11.30634602 0 0 Z " fill="#C8D4D7" transform="translate(245,289)"/>
<path d="M0 0 C11.75052464 3.91684155 19.14139099 9.07618935 27.0625 18.4375 C29.7710137 20.62178524 31.61206682 20.36041842 35 20 C35.99 19.67 36.98 19.34 38 19 C38.495 17.515 38.495 17.515 39 16 C45.57927818 25.86891728 44.39001413 41.05476727 44.1875 52.5 C44.17239259 54.01691347 44.15871513 55.53384186 44.14648438 57.05078125 C44.11403454 60.70084086 44.06260451 64.35031777 44 68 C41.11116643 65.13560067 38.36667525 62.28981355 35.8125 59.125 C26.17370528 48.1417382 13.82073911 44.45518478 0 41 C0 27.47 0 13.94 0 0 Z " fill="#8D9DA6" transform="translate(172,44)"/>
<path d="M0 0 C7.28038407 2.8385613 11.74873785 7.93256958 15.125 14.8125 C18.2372352 23.26229919 17.57869043 30.68441821 14.125 38.8125 C10.11584887 46.11488242 4.54825507 51.01210762 -3.4609375 53.3515625 C-8.05404118 54.22856288 -13.59031034 54.95484483 -17.875 52.8125 C-18.205 35.3225 -18.535 17.8325 -18.875 -0.1875 C-13.53592595 -2.85703703 -5.55524118 -1.67508976 0 0 Z " fill="#FCAFA0" transform="translate(241.875,132.1875)"/>
<path d="M0 0 C0.15002002 4.08900718 0.25798279 8.17691684 0.32958984 12.26806641 C0.35948354 13.65506948 0.40021646 15.04188818 0.45263672 16.42822266 C0.79479229 25.72009454 0.05396626 32.57669577 -6 40 C-11.1243074 45.26280219 -17.99270096 48.22385371 -25.3125 48.375 C-28.68024609 48.32076898 -31.37728995 48.21743476 -34 46 C-34.53371409 43.14644908 -34.83001563 40.56521808 -35 37.6875 C-36.12483623 24.620998 -40.25085197 13.70909816 -46 2 C-44.94425781 2.15984375 -43.88851563 2.3196875 -42.80078125 2.484375 C-36.94037326 3.21128727 -31.08580346 3.22292804 -25.1875 3.25 C-23.51977539 3.2809375 -23.51977539 3.2809375 -21.81835938 3.3125 C-14.28371235 3.34777044 -7.11712815 0 0 0 Z " fill="#FCAFA0" transform="translate(410,301)"/>
<path d="M0 0 C0.53496094 0.26941406 1.06992188 0.53882813 1.62109375 0.81640625 C4.42534584 2.21162527 7.23597972 3.58777647 10.0625 4.9375 C11.10535156 5.44152344 12.14820313 5.94554687 13.22265625 6.46484375 C22.64712296 10.50798809 31.61456115 11.52464414 41.8125 11.4375 C43.05136963 11.42992676 44.29023926 11.42235352 45.56665039 11.41455078 C60.14500294 11.15146255 69.318177 7.31468754 83 1 C83 10.9 83 20.8 83 31 C60.76486239 35.94114169 39.41797816 33.24338455 20 21 C12.63963334 15.79407602 5.13510181 9.4505659 0 2 C0 1.34 0 0.68 0 0 Z " fill="#D9E5E9" transform="translate(146,479)"/>
<path d="M0 0 C0.78552246 0.7930957 1.57104492 1.58619141 2.38037109 2.40332031 C4.41163412 4.41678849 6.30042465 6.11536711 8.625 7.75 C9.19476563 8.15734375 9.76453125 8.5646875 10.3515625 8.984375 C14.10141871 11.29471295 17.89293662 11.28670235 22.1875 11.5625 C24.09595703 11.68818359 24.09595703 11.68818359 26.04296875 11.81640625 C27.50669922 11.90728516 27.50669922 11.90728516 29 12 C29.07476562 13.11375 29.14953125 14.2275 29.2265625 15.375 C30.37245573 29.52849868 34.22174424 41.48629705 41 54 C34.30969267 53.06335697 34.30969267 53.06335697 31.44140625 52.4765625 C26.64154407 51.81188238 21.9024193 51.81572446 17.0625 51.8125 C16.09892578 51.80025391 15.13535156 51.78800781 14.14257812 51.77539062 C8.63433753 51.76409553 4.23232803 52.34320527 -1 54 C-3.9375 54.125 -3.9375 54.125 -6 54 C-5.72285156 53.26394531 -5.44570313 52.52789062 -5.16015625 51.76953125 C-4.79792969 50.79371094 -4.43570312 49.81789063 -4.0625 48.8125 C-3.52302734 47.36810547 -3.52302734 47.36810547 -2.97265625 45.89453125 C-1.0926222 40.29973114 -0.8049917 35.04954671 -0.68359375 29.19921875 C-0.66281265 28.36284378 -0.64203156 27.52646881 -0.62062073 26.66474915 C-0.55548966 24.00574579 -0.4964105 21.34664772 -0.4375 18.6875 C-0.39428008 16.87954769 -0.3506647 15.07160478 -0.30664062 13.26367188 C-0.19984584 8.84254378 -0.09847675 4.42132088 0 0 Z " fill="#FCC16D" transform="translate(281,217)"/>
<path d="M0 0 C12.16341732 4.29911518 22.26169483 10.54305078 32 19 C30.43242052 23.04171096 27.55439394 25.46142694 24.375 28.25 C23.29295481 29.2185839 22.2122316 30.18864661 21.1328125 31.16015625 C20.60204102 31.63727051 20.07126953 32.11438477 19.52441406 32.60595703 C16.2318414 35.61694196 13.11262237 38.80498468 10 42 C7.25491856 38.62799309 4.68867045 35.18063539 2.1875 31.625 C-9.28010107 15.92256271 -25.58146685 5.84002271 -44 0 C-43.67 -0.99 -43.34 -1.98 -43 -3 C-31.838797 -8.5806015 -11.42725177 -3.75531069 0 0 Z " fill="#FB4A59" transform="translate(219,264)"/>
<path d="M0 0 C2 3 2 3 3.6875 6.4375 C5.9391775 10.3821054 8.72444589 12.50234828 13 14 C15.31 14.33 17.62 14.66 20 15 C19.67 27.21 19.34 39.42 19 52 C14.30198603 54.34900698 8.31407109 53.31426577 3.4375 51.875 C-4.72219228 48.81333536 -10.13637271 43.77700085 -14 36 C-16.27778238 29.16665285 -16.15579609 19.71442368 -13.4375 13 C-10.38360653 7.25085536 -5.93487671 2.69412167 0 0 Z " fill="#FCAF9F" transform="translate(37,133)"/>
<path d="M0 0 C0.33 0 0.66 0 1 0 C1 1.98 1 3.96 1 6 C1.76183594 5.95359375 2.52367187 5.9071875 3.30859375 5.859375 C11.47066501 5.57405915 17.7646983 6.19400764 24.00390625 11.80078125 C29.09235464 17.27166 32.110298 22.53119147 32.3125 30.125 C32.02789495 37.68411 28.80616567 42.33940488 24 48 C18.58487348 52.89940019 15.09184794 54.26096015 7.75 54.125 C5.85507812 54.09792969 5.85507812 54.09792969 3.921875 54.0703125 C2.47554688 54.03550781 2.47554688 54.03550781 1 54 C1 56.64 1 59.28 1 62 C0.67 62 0.34 62 0 62 C0 41.54 0 21.08 0 0 Z " fill="#FDB09F" transform="translate(460,175)"/>
<path d="M0 0 C0 15.84 0 31.68 0 48 C-17.67567568 48 -17.67567568 48 -24.1875 41.9765625 C-29.59467627 36.31833876 -31.68868843 31.92252581 -32.3125 24.0625 C-32.08704674 17.19280649 -29.4584771 11.59151468 -24.7734375 6.609375 C-16.79318142 -0.6326195 -11.67058789 0 0 0 Z " fill="#FDB0A0" transform="translate(310,181)"/>
<path d="M0 0 C0.33 0 0.66 0 1 0 C1.27972656 1.09957031 1.55945313 2.19914063 1.84765625 3.33203125 C4.78237604 14.34940123 8.58008065 23.1094457 16.25 31.75 C21.96851357 38.26360102 22.32139154 43.63360633 22.203125 52.109375 C22 55 22 55 21 58 C17.57499037 56.69707731 14.31790666 55.17759487 11.04248047 53.53759766 C-4.31875017 45.98030888 -19.03021473 44.28712005 -36 44 C-33.84120929 42.36194803 -31.66485681 40.76391139 -29.44921875 39.203125 C-14.94595678 28.94622121 -6.08642436 16.69943569 0 0 Z " fill="#FCC06D" transform="translate(456,253)"/>
<path d="M0 0 C4.03038938 1.25949668 7.13599055 4.09241189 10.37890625 6.71875 C16.20038409 10.84264184 22.19585605 11.48045649 29.125 10.6640625 C34.50424636 9.25311264 38.7241622 7.26645151 42.75 3.4140625 C45.28879459 1.03770264 46.87485328 0.22247666 50.375 0.1015625 C54.125 0.6640625 54.125 0.6640625 56.125 1.6640625 C57.81184699 5.03775648 58.01968841 8.0720542 57.125 11.6640625 C52.49111728 18.97428012 43.03228655 23.83813424 34.875 26.0390625 C22.320466 28.17265951 11.54354524 27.06907266 0.74609375 20.13671875 C-1.20967948 18.72121437 -3.0459548 17.23809659 -4.875 15.6640625 C-5.7 15.0246875 -6.525 14.3853125 -7.375 13.7265625 C-9.64164218 10.6099295 -9.40965745 8.40666467 -8.875 4.6640625 C-6.64411267 1.18387827 -4.22185888 -0.20017434 0 0 Z " fill="#FDB0A0" transform="translate(115.875,199.3359375)"/>
<path d="M0 0 C2.59765625 1.4609375 2.59765625 1.4609375 5.0625 3.375 C10.72475722 7.72232545 15.16731644 9.52520505 22.3046875 9.38671875 C28.20049847 8.54079805 33.22710166 5.52551717 37.6875 1.6875 C40 0 40 0 43.5625 -0.5625 C47 0 47 0 49.5 2.0625 C51 5 51 5 51.3125 8.3125 C49.07055707 14.61129203 44.22020423 18.34471038 38.35546875 21.359375 C28.49158239 25.44098315 16.91368192 27.23786809 6.6875 23.375 C0.23270843 20.36559965 -7.53519743 16.45713206 -11 10 C-11 6.1862249 -10.84985071 3.97575452 -8.3125 1.0625 C-5.30013405 -0.32156003 -3.29969765 -0.28852036 0 0 Z " fill="#FDB0A0" transform="translate(365,237)"/>
<path d="M0 0 C4.55055668 -0.30050846 9.07555837 -0.50926028 13.63671875 -0.43359375 C14.38912842 -0.42384521 15.14153809 -0.41409668 15.91674805 -0.40405273 C18.52770784 0.10235046 19.62072627 1.09480956 21.4375 3 C22.02337891 3.9590625 22.02337891 3.9590625 22.62109375 4.9375 C30.99622615 17.46461022 50.03619206 22.85129821 64 26 C64 26.33 64 26.66 64 27 C46.18 27 28.36 27 10 27 C3.2248062 14.57881137 3.2248062 14.57881137 1.625 9 C1.30789062 7.9275 0.99078125 6.855 0.6640625 5.75 C0 3 0 3 0 0 Z " fill="#FA4A59" transform="translate(133,485)"/>
<path d="M0 0 C0.33 0 0.66 0 1 0 C1 4.29 1 8.58 1 13 C2.2375 13.20625 3.475 13.4125 4.75 13.625 C18.32706327 16.69422623 32.40222496 26.23371595 40 38 C40.91880657 41.20447971 40.69049105 42.60508567 40 46 C38.375 48.5 38.375 48.5 36 50 C33.0625 50.5625 33.0625 50.5625 30 50 C27.53418084 47.92352071 25.53325732 45.63963602 23.47265625 43.16796875 C16.59088577 35.53326934 11.43956622 34.21978311 1 29 C1 44.18 1 59.36 1 75 C0.67 75 0.34 75 0 75 C0 50.25 0 25.5 0 0 Z " fill="#596D76" transform="translate(171,15)"/>
<path d="M0 0 C1.76171875 1.12890625 1.76171875 1.12890625 3.5 2.5 C6.17836038 4.6091339 6.99284442 4.99899571 10.5625 5.5 C15.25862627 4.81692709 18.63455542 3.36544458 22 0 C25.85506762 -0.42834085 28.12800365 -0.55897202 31.4375 1.5625 C33.63021887 4.98314143 33.63007693 7.00951279 33 11 C29.18645462 15.96916519 23.90271194 19.03242935 18 21 C8.90750082 21.7631594 1.43378768 21.82821799 -6 16 C-7.010625 15.21625 -8.02125 14.4325 -9.0625 13.625 C-11 11 -11 11 -11.5625 7.4375 C-11 4 -11 4 -9.4375 1.5625 C-5.98413031 -0.65119852 -4.04354356 -0.61681173 0 0 Z " fill="#EF8822" transform="translate(374,439)"/>
<path d="M0 0 C2.62462244 -0.26697888 5.01065933 -0.34832984 7.6328125 -0.29296875 C8.76056595 -0.28660149 8.76056595 -0.28660149 9.91110229 -0.28010559 C12.31609685 -0.2632917 14.72025809 -0.22563624 17.125 -0.1875 C18.75389416 -0.17245659 20.38280144 -0.15876758 22.01171875 -0.14648438 C26.00813434 -0.11337954 30.00392582 -0.06158009 34 0 C32.37866455 5.74837114 30.08315311 9.4503244 27 15 C13.14 15 -0.72 15 -15 15 C-13.35 13.68 -11.7 12.36 -10 11 C-8.58209693 9.66895946 -7.18500052 8.31531 -5.8125 6.9375 C-4.80123047 5.93009766 -4.80123047 5.93009766 -3.76953125 4.90234375 C-1.83091368 2.92029247 -1.83091368 2.92029247 0 0 Z " fill="#C3D3D7" transform="translate(336,374)"/>
<path d="M0 0 C-3.80014774 4.554787 -7.65665546 8.95279259 -12 13 C-12.66 13 -13.32 13 -14 13 C-14 12.34 -14 11.68 -14 11 C-14.57492188 10.73832031 -15.14984375 10.47664063 -15.7421875 10.20703125 C-18.14601043 8.92194252 -20.03152702 7.42948582 -22.125 5.6875 C-29.34284573 -0.00394884 -37.23433106 -3.39570705 -46 -6 C-46 -6.66 -46 -7.32 -46 -8 C-29.6582553 -10.51411457 -14.41458484 -8.45470842 0 0 Z " fill="#FB9829" transform="translate(173,361)"/>
<path d="M0 0 C4.26469804 1.51794337 5.49935788 2.24903681 8 6 C8.4375 8.875 8.4375 8.875 8 12 C5.44975635 15.10164769 3.82300753 16.72566416 0 18 C-12.36769587 19.00724893 -12.36769587 19.00724893 -16.75 16.125 C-19.38715414 13.63435442 -19.89889255 12.75830584 -20.375 9.1875 C-19.87761245 4.95970586 -18.20618923 3.67182436 -15 1 C-10.60897418 -1.19551291 -4.79247258 -0.33192094 0 0 Z " fill="#FC9AA1" transform="translate(430,220)"/>
<path d="M0 0 C4.26469804 1.51794337 5.49935788 2.24903681 8 6 C8.4375 8.875 8.4375 8.875 8 12 C5.44975635 15.10164769 3.82300753 16.72566416 0 18 C-12.36769587 19.00724893 -12.36769587 19.00724893 -16.75 16.125 C-19.38715414 13.63435442 -19.89889255 12.75830584 -20.375 9.1875 C-19.87761245 4.95970586 -18.20618923 3.67182436 -15 1 C-10.60897418 -1.19551291 -4.79247258 -0.33192094 0 0 Z " fill="#FC9AA1" transform="translate(353,220)"/>
<path d="M0 0 C8.58 0 17.16 0 26 0 C22.46166746 4.12805463 19.10127913 8.02586805 15.29296875 11.83984375 C14.45958984 12.67451172 13.62621094 13.50917969 12.76757812 14.36914062 C11.91615234 15.21669922 11.06472656 16.06425781 10.1875 16.9375 C9.31673828 17.81212891 8.44597656 18.68675781 7.54882812 19.58789062 C6.30842773 20.82635742 6.30842773 20.82635742 5.04296875 22.08984375 C4.29039795 22.84128662 3.53782715 23.59272949 2.76245117 24.36694336 C1 26 1 26 0 26 C0 17.42 0 8.84 0 0 Z " fill="#F5F7F8" transform="translate(245,440)"/>
<path d="M0 0 C2.875 1.75 2.875 1.75 5 5 C5.97644847 10.70119912 6.0856927 15.33952882 2.875 20.25 C-0.55187542 22.33592417 -2.0669348 22.81938858 -6 22 C-8.875 20.25 -8.875 20.25 -11 17 C-11.97644847 11.29880088 -12.0856927 6.66047118 -8.875 1.75 C-5.44812458 -0.33592417 -3.9330652 -0.81938858 0 0 Z " fill="#EF8923" transform="translate(112,402)"/>
<path d="M0 0 C5.47236817 3.41265764 5.47236817 3.41265764 6.66625977 7.00439453 C7.03546968 9.28123107 7.239909 11.51016343 7.375 13.8125 C7.47748047 14.99489258 7.47748047 14.99489258 7.58203125 16.20117188 C7.74587527 18.13219065 7.8763259 20.06599299 8 22 C0.50809546 21.08262393 -5.14519303 17.58924353 -10.6875 12.5625 C-12.52570434 8.97362487 -12.06336905 6.82812857 -11 3 C-8.78378057 -1.04134132 -4.10099802 -1.09168424 0 0 Z " fill="#EF8924" transform="translate(126,434)"/>
<path d="M0 0 C2.375 1.375 2.375 1.375 4 4 C4.89218276 9.41146364 4.9608481 13.55872785 1.875 18.1875 C-1.54984225 20.34663968 -3.03371841 20.82630866 -7 20 C-9.875 18.125 -9.875 18.125 -12 15 C-12.9352793 10.03895327 -12.77890814 6.27221663 -10.125 1.9375 C-6.5099549 -1.35857053 -4.70017517 -1.22204554 0 0 Z " fill="#EF8922" transform="translate(364,414)"/>
<path d="M0 0 C2.375 1.4375 2.375 1.4375 4 4 C4.79741334 8.8170275 4.62130102 12.70562288 2.5 17.125 C-0.52888207 19.39666155 -2.36778349 19.74376202 -6.09375 19.47265625 C-8 19 -8 19 -10.5 17.0625 C-12.51984917 12.93864128 -12.83372591 9.51192848 -12 5 C-8.55519115 -0.51169416 -6.27577334 -1.63170107 0 0 Z " fill="#A65446" transform="translate(182,155)"/>
<path d="M0 0 C2.375 1.4375 2.375 1.4375 4 4 C4.79741334 8.8170275 4.62130102 12.70562288 2.5 17.125 C-0.52888207 19.39666155 -2.36778349 19.74376202 -6.09375 19.47265625 C-8 19 -8 19 -10.5 17.0625 C-12.51984917 12.93864128 -12.83372591 9.51192848 -12 5 C-8.55519115 -0.51169416 -6.27577334 -1.63170107 0 0 Z " fill="#A65446" transform="translate(106,155)"/>
<path d="M0 0 C2.5 1.375 2.5 1.375 4 4 C4.69337805 8.72612852 4.59103488 12.68360414 2.625 17.0625 C0.46346476 19.63971509 -0.51593472 19.94738421 -3.875 20.3125 C-7 20 -7 20 -9.16796875 18.390625 C-11.56713528 15.25994288 -11.50417541 13.34467899 -11.4375 9.4375 C-11.43556641 7.73400391 -11.43556641 7.73400391 -11.43359375 5.99609375 C-11 3 -11 3 -9.71875 1.125 C-6.70147589 -0.84994306 -3.41862333 -0.58467401 0 0 Z " fill="#EF8822" transform="translate(414,414)"/>
<path d="M0 0 C3.80915027 1.17737372 5.32439462 1.6815314 7.4375 5.0625 C8.25620329 9.57802844 8.00173999 12.97915921 5.875 17.0625 C2.59889499 19.75058616 0.6704541 20.28528706 -3.5625 20.0625 C-6.78664382 17.45574542 -8.17529031 15.86003443 -9.04296875 11.83203125 C-9.30545718 7.59674495 -8.87648923 5.53824126 -6.5 1.9375 C-3.5625 0.0625 -3.5625 0.0625 0 0 Z " fill="#A75446" transform="translate(351.5625,195.9375)"/>
<path d="M0 0 C2.875 1.3125 2.875 1.3125 5 4 C6.02957367 9.39695875 5.90550171 13.57314882 2.9375 18.25 C0 20 0 20 -3.625 20.0625 C-7.38555557 18.87862139 -8.08327537 18.31587673 -10 15 C-10.78933604 10.16442783 -10.94266885 5.55902925 -8.375 1.3125 C-5.2491132 -0.41496376 -3.52675456 -0.57579666 0 0 Z " fill="#A55244" transform="translate(422,196)"/>
<path d="M0 0 C2.68168885 1.60901331 2.96054846 2.8703735 3.875 5.875 C4.02796552 9.69913795 3.35349332 11.01890846 1 14 C-1.47437341 16.40925832 -3.11767889 17.80147775 -6.5 18.5625 C-10.23996182 17.72100859 -11.70853575 16.01163873 -14 13 C-14.66929633 9.85430725 -14.67932572 8.07393405 -12.9375 5.3203125 C-8.85325405 0.23931605 -6.4370507 -0.45172286 0 0 Z " fill="#FDB0A1" transform="translate(319,349)"/>
<path d="M0 0 C3.92267526 1.02330659 5.47701835 2.50567189 7.875 5.75 C8.625 8.625 8.625 8.625 7.875 11.75 C5.11886492 15.65583714 2.45492975 18.37081686 -2.25 19.5 C-6.17267526 18.47669341 -7.72701835 16.99432811 -10.125 13.75 C-10.875 10.875 -10.875 10.875 -10.125 7.75 C-7.36886492 3.84416286 -4.70492975 1.12918314 0 0 Z " fill="#FDB0A1" transform="translate(287.125,320.25)"/>
<path d="M0 0 C14.00921895 6.1707274 24.04586645 15.56370341 33 28 C32.67 28.66 32.34 29.32 32 30 C31.53851563 29.56429687 31.07703125 29.12859375 30.6015625 28.6796875 C21.36912989 20.25007512 11.74443939 15.82455807 0 12 C0 8.04 0 4.08 0 0 Z " fill="#8B9BA5" transform="translate(172,16)"/>
<path d="M0 0 C2.4375 1.625 2.4375 1.625 4 4 C4.5625 6.9375 4.5625 6.9375 4 10 C1.51397551 13.36344489 0.08574477 14.80057749 -4.0625 15.5625 C-7 15 -7 15 -9.375 13.4375 C-11.62340519 10.06489221 -11.56783945 7.97487617 -11 4 C-8.11188513 -0.5054592 -5.11821063 -0.73117295 0 0 Z " fill="#FDB0A0" transform="translate(291,362)"/>
<path d="M0 0 C1.90877584 2.58246143 3.56377246 5.12754491 5 8 C1.54173658 8.05789006 -1.91640293 8.09355821 -5.375 8.125 C-6.35984375 8.14175781 -7.3446875 8.15851563 -8.359375 8.17578125 C-9.30039063 8.18222656 -10.24140625 8.18867188 -11.2109375 8.1953125 C-12.51490479 8.21102295 -12.51490479 8.21102295 -13.84521484 8.22705078 C-16 8 -16 8 -18 6 C-15.56495491 4.9936345 -13.12729136 3.99473587 -10.6875 3 C-9.65206055 2.57074219 -9.65206055 2.57074219 -8.59570312 2.1328125 C-5.58454326 0.91089256 -3.28113016 0 0 0 Z " fill="#FA9A2C" transform="translate(145,477)"/>
<path d="M0 0 C0.66 0 1.32 0 2 0 C2.33 3.3 2.66 6.6 3 10 C0.69 10.66 -1.62 11.32 -4 12 C-3.52309796 10.37433394 -3.04340334 8.74948689 -2.5625 7.125 C-2.29566406 6.22007812 -2.02882813 5.31515625 -1.75390625 4.3828125 C-1 2 -1 2 0 0 Z " fill="#FA505E" transform="translate(373,366)"/>
</svg>
