<?xml version="1.0" encoding="UTF-8"?>
<svg version="1.1" xmlns="http://www.w3.org/2000/svg" width="512" height="512">
<path d="M0 0 C1.30550812 -0.01279495 1.30550812 -0.01279495 2.63739014 -0.02584839 C3.59474564 -0.02494202 4.55210114 -0.02403564 5.53846741 -0.02310181 C7.04858902 -0.03317764 7.04858902 -0.03317764 8.58921814 -0.04345703 C11.93441139 -0.06253019 15.27940472 -0.06636698 18.62464905 -0.06851196 C20.94956546 -0.07493722 23.27448105 -0.08166538 25.59939575 -0.08868408 C30.48454154 -0.10068282 35.36961651 -0.10436262 40.254776 -0.10317993 C46.495568 -0.10297747 52.7359009 -0.13019319 58.97658443 -0.16472435 C63.78521784 -0.18704413 68.59374206 -0.19101578 73.40242195 -0.18996048 C75.70157504 -0.19231211 78.00073135 -0.2011108 80.2998333 -0.21662521 C83.53073783 -0.23637178 86.76066991 -0.23041098 89.99159241 -0.21841431 C91.40029854 -0.23527283 91.40029854 -0.23527283 92.83746338 -0.25247192 C104.28249862 -0.14528168 114.38503464 4.33933451 122.7848053 12.04476929 C131.84627319 21.59446282 134.23175192 32.41671399 134.0816803 45.11508179 C133.89175699 50.41467241 132.62075396 55.28487931 130.8473053 60.26742554 C131.5485553 60.65672241 132.2498053 61.04601929 132.9723053 61.44711304 C143.82330949 67.84566714 150.55955284 76.07095 154.4254303 88.06039429 C156.49277856 98.87568841 154.73913638 109.12086592 150.8473053 119.26742554 C151.42738342 119.65672241 152.00746155 120.04601929 152.6051178 120.44711304 C161.15732735 126.57196279 165.71958751 133.65293515 167.91371155 143.94320679 C169.19264423 147.12716055 171.40130944 148.90849843 173.8473053 151.26742554 C173.86188782 150.1144397 173.87647034 148.96145386 173.89149475 147.77352905 C173.95038328 143.41012721 174.02759107 139.04719392 174.10975647 134.68417358 C174.14258728 132.8118563 174.17074248 130.93944995 174.19374084 129.06698608 C174.38625041 113.79319494 175.4020102 98.81634062 180.4723053 84.26742554 C180.72391418 83.53378784 180.97552307 82.80015015 181.23475647 82.04428101 C192.542305 50.52326846 215.57413295 27.99231056 245.1598053 13.57992554 C249.74958526 11.5790789 254.43629258 10.03063722 259.2223053 8.57992554 C260.21097595 8.27598877 260.21097595 8.27598877 261.21961975 7.96591187 C273.10904843 4.53188842 285.11391055 3.85854689 297.4098053 3.89242554 C298.52823822 3.89324127 298.52823822 3.89324127 299.66926575 3.89407349 C333.19951059 4.00622077 363.40781397 15.90523539 387.34681702 39.73226929 C408.76924778 61.6496537 419.92968302 90.36893898 420.04017639 120.84042358 C420.04835388 122.0932312 420.05653137 123.34603882 420.06495667 124.6368103 C420.08970008 128.76758514 420.1064517 132.89832381 420.1207428 137.02914429 C420.12610737 138.45519325 420.13148488 139.88124216 420.13687515 141.30729103 C420.15846438 147.23606205 420.17720424 153.16483052 420.18849754 159.09363079 C420.20476917 167.57727467 420.23806909 176.06046321 420.29489839 184.54393548 C420.33356194 190.51946131 420.3531251 196.49486504 420.35841811 202.47051269 C420.36207249 206.0366123 420.37410449 209.60222414 420.40652084 213.1681881 C420.44211637 217.13980002 420.43823978 221.11083488 420.43080139 225.08261108 C420.44720673 226.26347794 420.46361206 227.44434479 420.48051453 228.66099548 C420.41960166 236.57531683 420.41960166 236.57531683 417.58728027 240.00059509 C414.91813808 241.23467592 413.33276843 241.75667585 410.42420959 241.7215271 C409.1634687 241.72107391 409.1634687 241.72107391 407.8772583 241.72061157 C406.984366 241.69996643 406.09147369 241.67932129 405.17152405 241.65805054 C404.2463649 241.65239075 403.32120575 241.64673096 402.36801147 241.64089966 C399.42307544 241.61857034 396.47937144 241.5683804 393.5348053 241.51742554 C391.53417187 241.49735608 389.53351931 241.47910609 387.53285217 241.46273804 C382.63719766 241.41871679 377.74246012 241.349713 372.8473053 241.26742554 C372.54711487 242.04755005 372.24692444 242.82767456 371.93763733 243.63143921 C368.99128812 250.75453201 362.93782901 256.39327643 357.4488678 261.63851929 C355.75628882 263.1926362 355.75628882 263.1926362 354.8473053 265.26742554 C355.41191467 265.51750366 355.97652405 265.76758179 356.5582428 266.02523804 C366.84981929 271.61008671 378.21772242 284.53521068 382.8473053 295.26742554 C383.2223053 299.07992554 383.2223053 299.07992554 382.8473053 302.26742554 C382.1873053 302.92742554 381.5273053 303.58742554 380.8473053 304.26742554 C381.30048108 309.02577128 382.65261716 313.64796472 383.8473053 318.26742554 C384.7548053 318.32930054 385.6623053 318.39117554 386.5973053 318.45492554 C389.8473053 319.26742554 389.8473053 319.26742554 392.1598053 321.39242554 C395.90658109 327.77582133 395.00657669 335.82261672 395.02430725 343.01425171 C395.03087845 344.17927719 395.03744965 345.34430267 395.04421997 346.54463196 C395.06386422 350.38322011 395.07559062 354.22176947 395.08558655 358.06039429 C395.08966208 359.37288965 395.0937376 360.68538502 395.09793663 362.03765297 C395.11694311 368.26012321 395.13119118 374.48258182 395.1395486 380.70507544 C395.14934533 387.87897788 395.17574664 395.05257379 395.21604949 402.22636813 C395.2461863 407.78151784 395.26101458 413.3365794 395.26432961 418.89180928 C395.26668017 422.20634835 395.27761474 425.52048267 395.30079079 428.8349514 C395.32501648 432.52648143 395.32424812 436.21719858 395.317276 439.90878296 C395.33649109 441.55384827 395.33649109 441.55384827 395.35609436 443.23214722 C395.34567863 444.73976875 395.34567863 444.73976875 395.33505249 446.27784729 C395.33744084 447.14998965 395.3398292 448.02213202 395.34228992 448.92070293 C394.65180858 452.19427569 393.48652071 453.22392297 390.8473053 455.26742554 C388.22482679 455.66060475 386.02146478 455.80738327 383.40093994 455.77358341 C382.26629246 455.78275345 382.26629246 455.78275345 381.10872281 455.79210874 C378.55927608 455.80778139 376.01077083 455.7948138 373.46131897 455.78208923 C371.62105088 455.7874113 369.78078713 455.79447502 367.94053173 455.80313629 C362.87209691 455.82183542 357.80395282 455.8154337 352.73550558 455.80498326 C347.2739361 455.79801185 341.8124276 455.81397344 336.35087585 455.82698059 C325.64715558 455.84866007 314.94354145 455.84848365 304.23980641 455.84035505 C295.54331894 455.83406398 286.8468625 455.83518386 278.15037537 455.84162712 C276.9142611 455.84252878 275.67814684 455.84343043 274.40457457 455.84435941 C271.89370162 455.84621054 269.38282868 455.8480731 266.87195575 455.84994697 C243.98069577 455.86606574 221.08948241 455.85883826 198.19822757 455.84239383 C177.29246808 455.82754354 156.38683921 455.83632829 135.48109436 455.86434937 C112.00394273 455.89575671 88.52685154 455.91068602 65.04967594 455.90054935 C62.54786238 455.89952676 60.04604881 455.89853215 57.54423523 455.89756584 C56.31318485 455.89708945 55.08213447 455.89661306 53.81377953 455.89612224 C45.12427701 455.89395434 36.43483513 455.90378207 27.74534607 455.91833687 C17.16067952 455.93581819 6.57619057 455.9358033 -4.00846887 455.91298521 C-9.41251211 455.90180504 -14.81624197 455.89876569 -20.22027206 455.91728592 C-25.16239368 455.9340057 -30.10392655 455.92785578 -35.04600942 455.90306913 C-36.8386787 455.89815735 -38.63139471 455.9017783 -40.42402518 455.91455657 C-42.85217981 455.93062276 -45.27826986 455.91620316 -47.70632935 455.89383793 C-48.41021597 455.90582961 -49.11410259 455.91782129 -49.83931911 455.93017635 C-53.53669358 455.86013605 -54.90745132 455.50859907 -57.58680683 452.87370783 C-59.2520453 450.10206523 -59.65306909 448.6967936 -59.65390015 445.50408936 C-59.66373428 444.57387466 -59.67356842 443.64365997 -59.68370056 442.68525696 C-59.67403259 441.67644974 -59.66436462 440.66764252 -59.65440369 439.62826538 C-59.65980667 438.55590134 -59.66520966 437.48353729 -59.67077637 436.37867737 C-59.68329396 432.82829263 -59.66673614 429.2787149 -59.64878845 425.72836304 C-59.64894353 423.24753782 -59.65043392 420.76671236 -59.65319824 418.28588867 C-59.65476162 412.408271 -59.63638508 406.53094626 -59.61039644 400.65339243 C-59.58607274 394.69185801 -59.59482939 388.73054364 -59.60633755 382.7689724 C-59.61335294 377.63659832 -59.60543573 372.50432812 -59.59308052 367.37196732 C-59.58860798 364.93151882 -59.58819188 362.49105898 -59.59214592 360.05060959 C-59.61921964 328.59509303 -55.14183644 299.4618679 -32.17222595 276.19711304 C-27.96718447 272.06941501 -23.62909796 268.10009823 -19.1526947 264.26742554 C-20.3901947 262.81336304 -20.3901947 262.81336304 -21.6526947 261.32992554 C-22.47447205 260.36312866 -22.47447205 260.36312866 -23.31285095 259.37680054 C-24.54283914 257.966623 -25.80131098 256.58080952 -27.08628845 255.22055054 C-45.69162085 235.34584849 -48.81410482 211.29306577 -48.1526947 185.26742554 C-49.03570251 185.31383179 -49.91871033 185.36023804 -50.82847595 185.40805054 C-61.77366249 185.73722908 -70.72428145 184.06382423 -79.3714447 177.02914429 C-82.61470046 173.82145055 -84.94895197 170.24240075 -87.1526947 166.26742554 C-87.66509705 165.37990601 -87.66509705 165.37990601 -88.18785095 164.47445679 C-91.66507421 157.14802824 -91.26151887 147.04100755 -89.46128845 139.29086304 C-86.21147167 130.50683942 -80.97641532 124.27460673 -73.1526947 119.26742554 C-73.4414447 118.51461304 -73.7301947 117.76180054 -74.0276947 116.98617554 C-78.03963031 105.507582 -79.48020245 93.35455019 -74.5355072 81.85726929 C-69.37996972 72.20155927 -63.01661214 65.19938425 -53.1526947 60.26742554 C-53.3692572 59.65898804 -53.5858197 59.05055054 -53.8089447 58.42367554 C-57.69401033 46.19291338 -57.93232627 32.94568109 -52.1526947 21.26742554 C-47.45303374 13.7409883 -40.69044206 6.29121106 -32.1526947 3.26742554 C-28.4651947 3.39242554 -28.4651947 3.39242554 -25.1526947 4.26742554 C-24.73761658 4.77660522 -24.32253845 5.28578491 -23.8948822 5.81039429 C-21.12457092 8.12726897 -18.48362705 7.55176312 -14.9651947 7.45492554 C-13.69289001 7.42785522 -12.42058533 7.40078491 -11.10972595 7.37289429 C-10.13390564 7.3380896 -9.15808533 7.30328491 -8.1526947 7.26742554 C-7.8639447 6.48367554 -7.5751947 5.69992554 -7.2776947 4.89242554 C-5.53045464 0.81553207 -4.26597795 0.01885873 0 0 Z " fill="#010101" transform="translate(91.15269470214844,56.732574462890625)"/>
<path d="M0 0 C21.16116658 8.49108445 34.29750399 25.38356115 43.7109375 45.4765625 C44.13632812 46.63929688 44.56171875 47.80203125 45 49 C45.26997803 49.72791748 45.53995605 50.45583496 45.81811523 51.20581055 C48.95830946 61.30359906 48.41593624 71.76809945 48.33618164 82.23608398 C48.31253185 85.55802641 48.31564369 88.87916615 48.32226562 92.20117188 C48.31668888 94.34375471 48.30957902 96.48633422 48.30078125 98.62890625 C48.30169266 99.60630264 48.30260406 100.58369904 48.30354309 101.5907135 C48.20526444 111.29745638 46.73010252 120.41538175 42.9375 129.375 C42.63150879 130.09977539 42.32551758 130.82455078 42.01025391 131.57128906 C33.33166628 151.30996959 17.57204943 166.29907413 -2.08984375 174.87109375 C-7.2976472 176.89130207 -12.62325537 178.49539656 -18 180 C-18.62535645 180.17797119 -19.25071289 180.35594238 -19.89501953 180.53930664 C-40.17434282 184.97761365 -62.87165018 178.81386862 -80 168 C-98.44337098 154.94299578 -111.7832329 136.64325814 -116.62686157 114.31253052 C-117.8702219 106.60678786 -117.58236636 98.66888156 -117.52148438 90.88769531 C-117.500085 87.63790876 -117.52134851 84.39034362 -117.546875 81.140625 C-117.56827748 66.18977934 -116.51587798 52.1100884 -109.25 38.6875 C-108.90638428 38.02999756 -108.56276855 37.37249512 -108.20874023 36.69506836 C-102.92508426 26.83890208 -96.27855011 18.51013828 -88 11 C-87.29488281 10.35289062 -86.58976562 9.70578125 -85.86328125 9.0390625 C-85.18652344 8.46929687 -84.50976562 7.89953125 -83.8125 7.3125 C-83.22082031 6.81363281 -82.62914062 6.31476563 -82.01953125 5.80078125 C-78.4026908 4.36663755 -74.80793462 6.68018638 -71.33496094 8.05493164 C-61.65995388 11.59398227 -52.33960844 11.57847037 -42.14208984 11.46655273 C-39.24128585 11.43741246 -36.34229637 11.44601868 -33.44140625 11.45898438 C-31.57030374 11.45275004 -29.69920691 11.44436148 -27.828125 11.43359375 C-26.54811615 11.43799721 -26.54811615 11.43799721 -25.24224854 11.44248962 C-17.03802621 11.31531156 -9.96295885 9.64667444 -3.9375 3.8125 C-3.18339844 3.09707031 -2.42929687 2.38164062 -1.65234375 1.64453125 C-0.83443359 0.83048828 -0.83443359 0.83048828 0 0 Z " fill="#A97F7F" transform="translate(294,263)"/>
<path d="M0 0 C12.13817561 4.19160021 21.89208399 16.05915102 28.625 26.5625 C31.26071732 30.50560034 31.26071732 30.50560034 35.8125 32.125 C36.864375 32.08375 37.91625 32.0425 39 32 C39.66 32 40.32 32 41 32 C41.67260351 33.76858691 42.33788395 35.53996016 43 37.3125 C43.556875 38.79169922 43.556875 38.79169922 44.125 40.30078125 C45 43 45 43 45 46 C44.175 46.5775 43.35 47.155 42.5 47.75 C39.6149137 49.84190469 39.6149137 49.84190469 39.625 53.5625 C39.87490984 56.9771968 39.87490984 56.9771968 41 60 C41.08878884 61.47216888 41.12198352 62.94805441 41.12025452 64.42289734 C41.12232076 65.77673916 41.12232076 65.77673916 41.12442875 67.15793133 C41.12083064 68.14955178 41.11723253 69.14117224 41.11352539 70.1628418 C41.11364593 71.22380727 41.11376646 72.28477274 41.11389065 73.37788868 C41.11314319 76.81835323 41.10552249 80.25876387 41.09765625 83.69921875 C41.09618632 85.82084121 41.09516592 87.94246402 41.09460449 90.06408691 C41.08935758 97.93856347 41.07539643 105.81303226 41.0625 113.6875 C41.041875 131.280625 41.02125 148.87375 41 167 C-8.17 167 -57.34 167 -108 167 C-108.495 157.595 -108.495 157.595 -109 148 C-111.21993621 139.12025517 -114.76700536 132.45234505 -120 125 C-120.515625 124.26007813 -121.03125 123.52015625 -121.5625 122.7578125 C-122.69182344 121.16007649 -123.84296079 119.57778074 -125 118 C-124.28457031 117.55011719 -123.56914062 117.10023438 -122.83203125 116.63671875 C-99.77599574 101.75319777 -81.53670797 81.28575292 -75.50390625 53.734375 C-74.53672569 48.84251963 -73.73437784 43.93167559 -73 39 C-72.0821875 38.82984375 -71.164375 38.6596875 -70.21875 38.484375 C-58.45286421 36.16085974 -51.21324578 33.85363813 -44 24 C-41.36336598 19.69349777 -40.50124066 16.0124066 -40 11 C-39.34515625 10.96261719 -38.6903125 10.92523438 -38.015625 10.88671875 C-27.66940524 10.14144021 -7.84203836 7.84203836 0 0 Z " fill="#E38FCF" transform="translate(430,330)"/>
<path d="M0 0 C9.71402334 4.84063264 21.09305816 6.40240632 31.81640625 6.80859375 C32.02394531 7.65421875 32.23148437 8.49984375 32.4453125 9.37109375 C34.81923917 18.1119116 37.44524212 24.17817086 45.0703125 29.33203125 C51.35048389 32.81989529 57.73515365 33.993398 64.81640625 34.80859375 C64.94168701 35.40696045 65.06696777 36.00532715 65.19604492 36.62182617 C69.81859911 58.45160249 75.71804309 77.58591891 91.81640625 93.80859375 C92.66203125 94.69546875 93.50765625 95.58234375 94.37890625 96.49609375 C95.58546875 97.64078125 95.58546875 97.64078125 96.81640625 98.80859375 C97.37457031 99.33839844 97.93273437 99.86820312 98.5078125 100.4140625 C103.20894484 104.71631089 108.15397058 107.98038649 113.69140625 111.1328125 C114.39265625 111.68582031 115.09390625 112.23882812 115.81640625 112.80859375 C115.81640625 116.80859375 115.81640625 116.80859375 114.49609375 118.52734375 C113.90054688 119.11515625 113.305 119.70296875 112.69140625 120.30859375 C101.16747709 132.86102774 100.79050377 146.24893592 99.81640625 162.80859375 C50.64640625 162.80859375 1.47640625 162.80859375 -49.18359375 162.80859375 C-49.22484375 145.75171875 -49.26609375 128.69484375 -49.30859375 111.12109375 C-49.32680176 105.75770752 -49.34500977 100.39432129 -49.36376953 94.8684082 C-49.37280273 88.26208496 -49.37280273 88.26208496 -49.3744812 85.15837097 C-49.37752975 83.01476712 -49.38451637 80.87116645 -49.39474487 78.72758484 C-49.52559433 49.83289126 -44.37945632 27.55467532 -23.74609375 6.05859375 C-22.23718322 4.62923463 -20.71659572 3.21208348 -19.18359375 1.80859375 C-18.4978125 1.11378906 -17.81203125 0.41898437 -17.10546875 -0.296875 C-10.85317004 -5.72711221 -6.79321043 -3.42599935 0 0 Z " fill="#B0E3F8" transform="translate(97.18359375,334.19140625)"/>
<path d="M0 0 C3.35757415 1.11919138 3.88695203 1.86308122 6 4.5625 C14.88543429 14.95362504 27.07735127 21.35476061 40.22680664 24.58276367 C41.84831383 24.98249641 41.84831383 24.98249641 43.50257874 25.39030457 C44.73880226 25.69210381 44.73880226 25.69210381 46 26 C46.06975574 37.52725488 46.12294059 49.05445888 46.15543652 60.58188248 C46.1710392 65.93552397 46.19217812 71.2890202 46.22631836 76.64257812 C46.25910523 81.81676394 46.27689353 86.99081072 46.28463173 92.16509247 C46.29014072 94.13128597 46.30089771 96.09747255 46.31719017 98.06360626 C46.39982694 108.45688323 46.34303589 118.02540535 43 128 C42.47019531 129.76150391 42.47019531 129.76150391 41.9296875 131.55859375 C35.17834294 149.98726391 22.11062003 164.09615992 4.54296875 172.69140625 C-2.19359257 175.72030435 -8.63967857 178.18742051 -16 179 C-16.93972656 179.14050781 -17.87945312 179.28101563 -18.84765625 179.42578125 C-21.82234666 179.69402386 -24.10685971 179.75772722 -27 179 C-28.9452924 176.95255754 -30.12636757 174.87248288 -31.47265625 172.39453125 C-34.84430332 167.10854748 -41.14214122 163.89916171 -47 162 C-49.62805842 161.71132208 -52.17910831 161.49595962 -54.8125 161.375 C-55.85180664 161.31699219 -55.85180664 161.31699219 -56.91210938 161.2578125 C-58.60767015 161.16426432 -60.30379712 161.08107636 -62 161 C-62.40089844 160.07960938 -62.80179687 159.15921875 -63.21484375 158.2109375 C-70.65699772 141.48947307 -81.96783337 120.51608331 -99 112 C-99 84.28 -99 56.56 -99 28 C-88.44 27.01 -77.88 26.02 -67 25 C-54.59423742 22.88538138 -42.83245486 20.19447703 -31 16 C-30.37287109 15.78118164 -29.74574219 15.56236328 -29.09960938 15.33691406 C-19.50096169 11.93142062 -7.35014441 7.35014441 0 0 Z " fill="#FDDBCC" transform="translate(415,147)"/>
<path d="M0 0 C2.71739662 2.6871473 5.38545269 5.4008647 7.98828125 8.19921875 C23.4953247 24.62492036 42.81586891 35.80631532 65.84912109 37.23950195 C69.69553391 37.29275549 73.52905995 37.2638705 77.375 37.1875 C78.70831784 37.17239296 80.04165267 37.15871542 81.375 37.14648438 C84.58378565 37.11160627 87.7916563 37.06260026 91 37 C91.20364742 41.0617589 91.32774825 45.1222056 91.4375 49.1875 C91.52547852 50.91323242 91.52547852 50.91323242 91.61523438 52.67382812 C91.78644965 61.11229529 91.78644965 61.11229529 89.55126953 63.63525391 C88.3297986 64.41379893 87.08008887 65.14966438 85.80712891 65.84082031 C82.45374031 67.99184558 81.15651751 71.29462827 80 75 C79.51626252 78.00805324 79.47273809 80.89661263 79.5625 83.9375 C79.57643799 84.73091797 79.59037598 85.52433594 79.60473633 86.34179688 C79.78396086 92.01626738 80.48414442 96.85890381 83 102 C83.39832031 102.86238281 83.79664063 103.72476563 84.20703125 104.61328125 C86.17226642 108.71593231 88.17963371 112.41715097 91 116 C89.50174324 119.65148915 87.42568867 121.59041744 84.4375 124.125 C70.77638837 136.21586892 61.79125735 149.74263514 56 167 C54.98421875 167.00257813 53.9684375 167.00515625 52.921875 167.0078125 C42.55695586 167.22014105 33.33874047 168.49500118 25.7421875 176.328125 C23.53577127 179.09731136 21.58417823 181.83164354 20 185 C1.79615656 185.60679478 -14.48024101 179.65761649 -28.1875 167.625 C-42.56058719 154.15163657 -51.69768649 137.51772466 -53.18027115 117.57513046 C-53.24291045 115.09583816 -53.24797187 112.62402687 -53.22705078 110.14404297 C-53.22734283 109.2159935 -53.22763489 108.28794403 -53.22793579 107.33177185 C-53.22655615 104.30181115 -53.21106001 101.27210459 -53.1953125 98.2421875 C-53.19157751 96.12655776 -53.18873283 94.01092628 -53.18673706 91.89529419 C-53.17913892 86.35513445 -53.15952356 80.81508131 -53.1373291 75.27496338 C-53.11678803 69.61040692 -53.10771774 63.94583306 -53.09765625 58.28125 C-53.07627379 47.18745343 -53.04218441 36.09373562 -53 25 C-51.71037354 24.94739014 -50.42074707 24.89478027 -49.09204102 24.84057617 C-47.37514659 24.76256218 -45.65826917 24.68417313 -43.94140625 24.60546875 C-43.09437134 24.57191284 -42.24733643 24.53835693 -41.37463379 24.50378418 C-27.96811328 23.866303 -15.77390227 19.51979849 -6.5625 9.4375 C-4.01712097 6.45637758 -1.95287788 3.39812695 0 0 Z " fill="#FDDBCC" transform="translate(111,141)"/>
<path d="M0 0 C0.86238281 0.18304688 1.72476563 0.36609375 2.61328125 0.5546875 C29.83030502 7.0867732 52.39744544 23.74487572 67.15234375 47.41015625 C80.41154648 69.33684149 82.6085784 90.85320543 82.390625 115.9140625 C82.38314745 118.46666008 82.3774617 121.01926348 82.37347412 123.5718689 C82.35987569 129.55316159 82.32850443 135.53418553 82.28807616 141.51534116 C82.24298622 148.337835 82.22127901 155.16034508 82.20129442 161.9829514 C82.15975746 175.98883022 82.0865575 189.99433074 82 204 C74.08 204 66.16 204 58 204 C58.56958955 199.44328363 59.11687967 195.32928968 60.03930664 190.91796875 C61.68332009 181.14600088 61.3501202 171.19212731 61.37109375 161.3125 C61.38007246 159.11962832 61.38919451 156.92675723 61.39845276 154.73388672 C61.41485963 150.161606 61.42262935 145.58939787 61.42553711 141.01708984 C61.43095456 135.1546933 61.46880801 129.29297477 61.51428127 123.43077087 C61.54396875 118.9132433 61.55125864 114.39588205 61.55226326 109.87826538 C61.55647146 107.715656 61.56892964 105.5530464 61.58978081 103.39053345 C61.6165605 100.37702381 61.61191302 97.3651293 61.59936523 94.3515625 C61.61419952 93.45907303 61.62903381 92.56658356 61.64431763 91.64704895 C61.60100395 86.54765954 61.60100395 86.54765954 58.68544006 82.45410156 C55.29552926 80.61854595 52.20627949 80.34383236 48.4375 80.125 C35.37575117 78.89850268 24.34308222 72.28686262 15.7421875 62.40625 C14.40001181 60.72233954 13.07932516 59.02088553 11.7890625 57.296875 C8.31709516 52.51002999 8.31709516 52.51002999 3 50.53125 C-0.55543436 51.08678662 -1.54705787 51.92836712 -4 54.5 C-28.25734954 77.45929739 -70.02645851 82.53302274 -101.70654297 82.49707031 C-105.04497943 82.54534351 -107.41372399 82.59731044 -110.21148682 84.51898193 C-112.6927257 87.96094622 -112.57257086 91.07654871 -112.54589844 95.16503906 C-112.55623611 95.9849231 -112.56657379 96.80480713 -112.57722473 97.64953613 C-112.6066839 100.35509882 -112.60815254 103.05991444 -112.609375 105.765625 C-112.62435457 107.64322336 -112.64108125 109.52080854 -112.65948486 111.39837646 C-112.70319571 116.33687948 -112.72316575 121.27520475 -112.73822021 126.21386719 C-112.75777783 131.25466438 -112.79974935 136.29526922 -112.83984375 141.3359375 C-112.91518632 151.22389906 -112.9654533 161.11181765 -113 171 C-113.66 171 -114.32 171 -115 171 C-115.07476562 170.154375 -115.14953125 169.30875 -115.2265625 168.4375 C-116.26880084 159.4456398 -118.1692815 154.09443799 -125.1015625 148.21875 C-127.64554187 146.25757317 -130.12407323 144.43796339 -133 143 C-133.07692867 135.88744141 -133.12896296 128.77499255 -133.16479492 121.66210938 C-133.17975429 119.24930818 -133.20012911 116.83653356 -133.22631836 114.42382812 C-133.40657135 97.3740161 -133.06929902 81.55359251 -126.875 65.4375 C-126.57424561 64.64577393 -126.27349121 63.85404785 -125.96362305 63.03833008 C-115.78514419 37.27753484 -96.05683862 18.40917441 -71.296875 6.4140625 C-49.36720363 -2.99179181 -23.30483309 -5.43894184 0 0 Z " fill="#F7ED62" transform="translate(414,78)"/>
<path d="M0 0 C1.63001953 0.01353516 1.63001953 0.01353516 3.29296875 0.02734375 C4.12441406 0.03894531 4.95585938 0.05054688 5.8125 0.0625 C6.10125 1.031875 6.39 2.00125 6.6875 3 C7.45464682 6.16914203 7.45464682 6.16914203 9.8125 7.0625 C12.92247741 7.15425787 16.01055438 7.18503842 19.12060547 7.17260742 C21.12385052 7.17315034 23.12709555 7.17373737 25.13034058 7.17436218 C26.1967767 7.17293402 27.26321281 7.17150585 28.36196518 7.17003441 C34.00958784 7.16651812 39.6571105 7.19232664 45.3046875 7.21289062 C52.49162051 7.23717795 59.67826618 7.25298807 66.86523438 7.23754883 C72.67092098 7.22584225 78.47589232 7.24341182 84.28146744 7.27999306 C86.48765654 7.28857496 88.69391468 7.28657976 90.90008163 7.273489 C113.94270899 7.14707283 113.94270899 7.14707283 122.8125 14.0625 C128.54582765 19.90397082 131.69801498 25.46386006 132.3125 33.6875 C132.17611967 41.19978324 128.32202979 48.03773931 123.60546875 53.72265625 C121.48582257 55.98479301 121.48582257 55.98479301 121.875 59.1875 C122.85179639 62.18300893 123.40045454 63.14800652 125.8125 65.0625 C128.10692848 65.74400779 128.10692848 65.74400779 130.625 66.0625 C138.57757002 67.50318297 143.77165464 70.7767001 148.8125 77.0625 C152.62028132 83.08125112 153.89081698 89.0145313 152.8125 96.0625 C150.91677524 102.81531836 146.98075409 108.36190695 141.8125 113.0625 C140.8225 113.3925 139.8325 113.7225 138.8125 114.0625 C138.79832031 113.32644531 138.78414062 112.59039062 138.76953125 111.83203125 C138.54504766 107.23921838 138.26300329 103.87029901 136 99.8125 C130.68541765 96.89469008 124.65404635 98.01201529 118.91796875 99.58056641 C100.80819344 103.72582342 82.32688212 98.19600185 66.8125 89.0625 C63.57023899 86.9463499 60.67590754 84.66407845 57.8125 82.0625 C56.69488281 81.08216797 56.69488281 81.08216797 55.5546875 80.08203125 C47.08039883 72.19663383 41.6313489 62.32014447 36.8203125 51.890625 C35.94376698 49.89172478 35.94376698 49.89172478 33.8125 49.0625 C29.79190337 48.63143944 29.79190337 48.63143944 26.2109375 50.16015625 C24.2149262 52.87540067 23.95016621 55.44547366 23.375 58.75 C21.56854509 67.83843375 18.61409942 75.6439823 10.9609375 81.47265625 C1.26932892 87.89007274 -8.17764159 87.39526236 -19.4921875 87.36523438 C-26.28394976 87.44511721 -26.28394976 87.44511721 -32.47265625 89.9296875 C-34.98870456 94.526204 -34.9687734 98.70873265 -35 103.875 C-35.02513672 104.85404297 -35.05027344 105.83308594 -35.07617188 106.84179688 C-35.13488663 109.24910197 -35.1712798 111.65459562 -35.1875 114.0625 C-41.75474487 110.35590247 -46.38174023 105.50490556 -48.7109375 98.22265625 C-50.35200116 90.7840644 -49.44998859 85.04033167 -45.73828125 78.390625 C-41.21026897 71.5929038 -36.04476203 67.25745981 -27.8515625 65.5859375 C-27.05492188 65.43382812 -26.25828125 65.28171875 -25.4375 65.125 C-22.57520791 64.52421173 -21.36109604 64.20546145 -19.0625 62.3125 C-17.80124043 59.06926111 -18.1276954 57.37438937 -19.1875 54.0625 C-20.38505737 52.6060113 -21.58739995 51.1521832 -22.84375 49.74609375 C-27.13867581 44.36495124 -28.88155435 38.37184488 -28.57421875 31.546875 C-27.27444237 23.19679641 -22.68375071 16.66754955 -16 11.6875 C-13.1875 10.0625 -13.1875 10.0625 -11.1875 10.0625 C-11.07792969 9.42441406 -10.96835938 8.78632812 -10.85546875 8.12890625 C-10.69691406 7.30261719 -10.53835937 6.47632812 -10.375 5.625 C-10.22417969 4.80128906 -10.07335937 3.97757812 -9.91796875 3.12890625 C-9.67691406 2.44699219 -9.43585938 1.76507813 -9.1875 1.0625 C-5.90230525 -0.03256492 -3.45086585 -0.03710608 0 0 Z " fill="#514697" transform="translate(78.1875,63.9375)"/>
<path d="M0 0 C4.16785815 2.66157959 7.73034585 5.94254828 11.2265625 9.421875 C11.98839844 8.84179688 11.98839844 8.84179688 12.765625 8.25 C24.51570675 -0.63957495 33.4776857 -3.94961257 48.2265625 -2.578125 C55.9765651 -0.99198457 62.15892069 3.42581026 67.2265625 9.421875 C73.12535254 19.08795951 75.74889015 27.75234802 73.765625 39.046875 C70.67571805 50.67946587 62.53775569 58.54406251 54.2109375 66.765625 C53.14754679 67.82595118 52.08475191 68.88687522 51.02252197 69.94836426 C48.81154843 72.15476817 46.59579951 74.35621101 44.37597656 76.55371094 C41.52874742 79.37245139 38.690461 82.19999036 35.85522079 85.03078461 C33.66818564 87.21367148 31.4783346 89.39371335 29.28742218 91.57270813 C28.23915704 92.61527621 27.19135876 93.65831392 26.14403534 94.701828 C24.68683638 96.15217327 23.22631045 97.59907635 21.76464844 99.04492188 C20.93447205 99.86827026 20.10429565 100.69161865 19.2489624 101.53991699 C16.59578823 104.00884629 15.61048387 104.38019635 11.9503479 104.77754211 C7.2588724 104.32944874 5.95190174 103.02784162 2.64599609 99.73120117 C1.88110115 98.98229614 1.88110115 98.98229614 1.10075378 98.21826172 C-0.57571494 96.5674417 -2.22544644 94.89252663 -3.875 93.21484375 C-5.04019636 92.05182556 -6.20650536 90.88992113 -7.37387085 89.7290802 C-9.81761758 87.29113797 -12.24853275 84.84126305 -14.67089844 82.38208008 C-17.75677362 79.25095389 -20.87052287 76.14946438 -23.99444008 73.05634594 C-26.40959131 70.65911932 -28.80984879 68.24740123 -31.20597458 65.83117104 C-32.34745086 64.68323306 -33.49316442 63.5394908 -34.64336014 62.40028954 C-43.49983497 53.60237312 -50.21526626 45.09352825 -50.84375 32.1171875 C-50.58093224 22.04250654 -47.23199545 13.49535576 -40.4765625 6.0234375 C-30.079715 -3.75341451 -12.9291461 -6.13134763 0 0 Z " fill="#010001" transform="translate(248.7734375,2.578125)"/>
<path d="M0 0 C3.98452174 1.98863764 8.01799729 3.10389394 12.33984375 4.12109375 C12.99799072 4.2794873 13.6561377 4.43788086 14.33422852 4.60107422 C18.14779562 5.49030593 21.97142671 6.20564603 25.83984375 6.80859375 C25.48792969 7.246875 25.13601562 7.68515625 24.7734375 8.13671875 C18.31572733 16.43226289 13.2414257 25.16578728 9.52734375 34.99609375 C9.285 35.63675781 9.04265625 36.27742188 8.79296875 36.9375 C5.65230892 45.63198201 4.54082449 53.78958667 4.52099609 63.01977539 C4.50592766 64.64571625 4.50592766 64.64571625 4.49055481 66.30450439 C4.45985852 69.85924793 4.44272534 73.41391661 4.42578125 76.96875 C4.40705871 79.44454079 4.3874845 81.92032527 4.36709595 84.39610291 C4.3158836 90.89135002 4.27619954 97.3866178 4.23895264 103.88195801 C4.19178463 111.68653211 4.13023359 119.491003 4.07110596 127.29549408 C3.98302665 139.13315269 3.91316672 150.97079312 3.83984375 162.80859375 C-13.65015625 162.80859375 -31.14015625 162.80859375 -49.16015625 162.80859375 C-49.24037387 137.12558617 -49.24037387 137.12558617 -49.2578125 126.11914062 C-49.26973572 118.62944683 -49.28379201 111.13980227 -49.31103516 103.65014648 C-49.33287695 97.6071284 -49.34474868 91.56416316 -49.34991074 85.52110863 C-49.35358622 83.22361609 -49.36076315 80.92612622 -49.37161636 78.62865639 C-49.50241781 49.77404525 -44.32280457 27.52007232 -23.72265625 6.05859375 C-22.21374572 4.62923463 -20.69315822 3.21208348 -19.16015625 1.80859375 C-18.474375 1.11378906 -17.78859375 0.41898437 -17.08203125 -0.296875 C-10.83736721 -5.72048136 -6.78099602 -3.43906988 0 0 Z " fill="#8FD7F8" transform="translate(97.16015625,334.19140625)"/>
<path d="M0 0 C6.98531875 2.29666187 13.64627841 4.42323752 21 5 C20.47212891 5.69222656 20.47212891 5.69222656 19.93359375 6.3984375 C18.27549872 8.5890278 16.63857763 10.79477769 15 13 C14.43539062 13.73605469 13.87078125 14.47210938 13.2890625 15.23046875 C1.82476102 30.71505695 -4.09341511 49.20459547 -4.203125 68.43359375 C-4.21167511 69.6269912 -4.21167511 69.6269912 -4.22039795 70.84449768 C-4.22980066 72.52449231 -4.236363 74.204505 -4.24023438 75.88452148 C-4.24985378 78.39927361 -4.28088587 80.91317645 -4.3125 83.42773438 C-4.48668063 109.93845097 2.8765583 134.95817667 21.42578125 154.45068359 C29.42112109 162.31954629 40.41913358 172.10916412 52 173 C52 173.33 52 173.66 52 174 C22.69059358 174.54038049 0.52451663 168.88279078 -21.1875 148.1875 C-38.60300163 130.30867516 -43.70977827 107.95310394 -43.52148438 83.88769531 C-43.500085 80.63790876 -43.52134851 77.39034362 -43.546875 74.140625 C-43.56827748 59.18977934 -42.51587798 45.1100884 -35.25 31.6875 C-34.90638428 31.02999756 -34.56276855 30.37249512 -34.20874023 29.69506836 C-28.92508426 19.83890208 -22.27855011 11.51013828 -14 4 C-12.94232422 3.02933594 -12.94232422 3.02933594 -11.86328125 2.0390625 C-10.84814453 1.18441406 -10.84814453 1.18441406 -9.8125 0.3125 C-9.22082031 -0.18636719 -8.62914062 -0.68523437 -8.01953125 -1.19921875 C-4.90568025 -2.43391789 -3.03767015 -1.22407969 0 0 Z " fill="#9C6A6A" transform="translate(220,270)"/>
<path d="M0 0 C0.66 0.33 1.32 0.66 2 1 C1.01 1.33 0.02 1.66 -1 2 C-0.93848764 14.50142334 -0.86116783 27.0026431 -0.76428509 39.50384521 C-0.71977031 45.31016624 -0.68047366 51.11642014 -0.65356445 56.92285156 C-0.62734163 62.5380849 -0.58680836 68.15305724 -0.53681374 73.76812744 C-0.52027231 75.89842453 -0.50867957 78.02876664 -0.50238609 80.15911865 C-0.44625598 97.43050087 0.77490546 113.01784245 8 129 C8.41894531 129.93328125 8.83789062 130.8665625 9.26953125 131.828125 C15.66014313 144.71984926 27.27499754 156.37239455 40 163 C39.67 163.99 39.34 164.98 39 166 C20.79615656 166.60679478 4.51975899 160.65761649 -9.1875 148.625 C-23.56058719 135.15163657 -32.69768649 118.51772466 -34.18027115 98.57513046 C-34.24291045 96.09583816 -34.24797187 93.62402687 -34.22705078 91.14404297 C-34.22734283 90.2159935 -34.22763489 89.28794403 -34.22793579 88.33177185 C-34.22655615 85.30181115 -34.21106001 82.27210459 -34.1953125 79.2421875 C-34.19157751 77.12655776 -34.18873283 75.01092628 -34.18673706 72.89529419 C-34.17913892 67.35513445 -34.15952356 61.81508131 -34.1373291 56.27496338 C-34.11678803 50.61040692 -34.10771774 44.94583306 -34.09765625 39.28125 C-34.07627379 28.18745343 -34.04218441 17.09373562 -34 6 C-32.71617432 5.95101562 -31.43234863 5.90203125 -30.10961914 5.8515625 C-28.39727911 5.7764753 -26.68495911 5.7009301 -24.97265625 5.625 C-24.12981079 5.5940625 -23.28696533 5.563125 -22.4185791 5.53125 C-14.50473857 5.16378751 -7.14857671 3.57428835 0 0 Z " fill="#FCC8BB" transform="translate(92,160)"/>
<path d="M0 0 C0 0.33 0 0.66 0 1 C-1.299375 0.979375 -2.59875 0.95875 -3.9375 0.9375 C-22.25610373 2.80568622 -41.09515653 20.23172185 -52.30029297 33.54492188 C-62.97108161 46.74906322 -74.59158077 66.58694869 -74 84 C-74.61520508 84.0093457 -75.23041016 84.01869141 -75.86425781 84.02832031 C-78.66031086 84.08211085 -81.4547062 84.16573819 -84.25 84.25 C-85.21808594 84.26417969 -86.18617188 84.27835937 -87.18359375 84.29296875 C-88.58544922 84.34130859 -88.58544922 84.34130859 -90.015625 84.390625 C-90.87446289 84.41157227 -91.73330078 84.43251953 -92.61816406 84.45410156 C-95.91813097 85.21042854 -96.94717885 86.30371167 -99 89 C-99.40282125 91.84855218 -99.56448341 94.31623576 -99.54589844 97.16503906 C-99.55623611 97.9849231 -99.56657379 98.80480713 -99.57722473 99.64953613 C-99.6066839 102.35509882 -99.60815254 105.05991444 -99.609375 107.765625 C-99.62435457 109.64322336 -99.64108125 111.52080854 -99.65948486 113.39837646 C-99.70319571 118.33687948 -99.72316575 123.27520475 -99.73822021 128.21386719 C-99.75777783 133.25466438 -99.79974935 138.29526922 -99.83984375 143.3359375 C-99.91518632 153.22389906 -99.9654533 163.11181765 -100 173 C-100.66 173 -101.32 173 -102 173 C-102.07476562 172.154375 -102.14953125 171.30875 -102.2265625 170.4375 C-103.26880084 161.4456398 -105.1692815 156.09443799 -112.1015625 150.21875 C-114.64554187 148.25757317 -117.12407323 146.43796339 -120 145 C-120.07692867 137.88744141 -120.12896296 130.77499255 -120.16479492 123.66210938 C-120.17975429 121.24930818 -120.20012911 118.83653356 -120.22631836 116.42382812 C-120.40657135 99.3740161 -120.06929902 83.55359251 -113.875 67.4375 C-113.57424561 66.64577393 -113.27349121 65.85404785 -112.96362305 65.03833008 C-102.78514419 39.27753484 -83.05683862 20.40917441 -58.296875 8.4140625 C-39.09852786 0.17970034 -20.64574994 -0.30052038 0 0 Z " fill="#FBCD62" transform="translate(401,76)"/>
<path d="M0 0 C5.32909725 3.08241063 9.26816437 7.55838871 13.328125 12.125 C16.60175865 14.79130795 18.72321314 15.21530793 22.91796875 15.234375 C25.15406622 14.13394506 25.15406622 14.13394506 26.85546875 12.234375 C27.51933594 11.59113281 28.18320312 10.94789062 28.8671875 10.28515625 C29.54394531 9.60839844 30.22070312 8.93164062 30.91796875 8.234375 C32.32374647 6.95150681 33.74014561 5.6801607 35.16796875 4.421875 C35.791875 3.85855469 36.41578125 3.29523437 37.05859375 2.71484375 C41.54885935 -0.86038874 45.37649374 -1.32035043 51.02734375 -1.20703125 C56.64461517 -0.34925872 60.58080388 2.69507695 64.36328125 6.8046875 C67.72165722 11.66611285 67.94453679 17.5505093 66.91796875 23.234375 C63.90494491 30.67093637 59.25047341 35.42661126 53.55859375 40.984375 C52.6542157 41.88309326 51.74983765 42.78181152 50.8180542 43.70776367 C48.43150701 46.0758057 46.03669345 48.43478869 43.63726807 50.78973389 C41.18313621 53.2026798 38.74052681 55.62723062 36.296875 58.05078125 C31.51436862 62.78932412 26.72061047 67.51624567 21.91796875 72.234375 C18.55788609 70.77291841 16.33941757 68.91367447 13.74780273 66.33886719 C12.53150429 65.13686676 12.53150429 65.13686676 11.29063416 63.9105835 C10.42386551 63.04290344 9.55709686 62.17522339 8.6640625 61.28125 C7.76679947 60.38827209 6.86953644 59.49529419 5.94508362 58.57525635 C4.04875757 56.68467328 2.15472115 54.79207315 0.26391602 52.89599609 C-2.15073901 50.47555467 -4.57654915 48.06665245 -7.00567722 45.66074753 C-9.33105659 43.35371075 -11.64535849 41.03561688 -13.9609375 38.71875 C-14.82973038 37.85916687 -15.69852325 36.99958374 -16.59364319 36.11395264 C-22.03866745 30.62693835 -26.48687154 25.97174008 -26.58203125 17.859375 C-26.41272728 12.20308325 -24.87493032 8.42236772 -21.08203125 4.234375 C-14.87109629 -0.61015427 -7.67931816 -2.82391437 0 0 Z " fill="#E18ECE" transform="translate(240.08203125,15.765625)"/>
<path d="M0 0 C8.38383245 1.71188202 16.39435232 2.46967893 24.9375 2.5 C26.38962891 2.50592163 26.38962891 2.50592163 27.87109375 2.51196289 C34.48860823 2.45832829 40.25108744 1.76889468 46.59375 -0.19140625 C49.87211529 -0.88082719 52.02737734 -0.65850533 55.25 0.25 C63.46868695 6.01677867 68.13759787 14.91279362 71.25 24.25 C71.25 29.86 71.25 35.47 71.25 41.25 C39.9 41.25 8.55 41.25 -23.75 41.25 C-23.75 24.01407209 -23.15540036 16.15275359 -11.93359375 4.30859375 C-11.21300781 3.62925781 -10.49242187 2.94992187 -9.75 2.25 C-9.11707031 1.64800781 -8.48414063 1.04601562 -7.83203125 0.42578125 C-4.9127869 -1.22279764 -3.23906426 -0.68809137 0 0 Z " fill="#B2E49E" transform="translate(235.75,455.75)"/>
<path d="M0 0 C1.63001953 0.01353516 1.63001953 0.01353516 3.29296875 0.02734375 C4.12441406 0.03894531 4.95585938 0.05054688 5.8125 0.0625 C6.10125 1.031875 6.39 2.00125 6.6875 3 C7.45464682 6.16914203 7.45464682 6.16914203 9.8125 7.0625 C11.16789661 7.16557183 12.52810084 7.20891341 13.88735962 7.22071838 C14.73993851 7.2305072 15.5925174 7.24029602 16.47093201 7.25038147 C17.87678307 7.25901466 17.87678307 7.25901466 19.31103516 7.26782227 C20.78913918 7.28267166 20.78913918 7.28267166 22.29710388 7.29782104 C25.56523203 7.32949403 28.83337474 7.35421639 32.1015625 7.37890625 C34.36315293 7.39947077 36.62473946 7.4204671 38.88632202 7.44187927 C44.84738014 7.49715179 50.80847325 7.5465382 56.76959229 7.59472656 C62.8490308 7.64490381 68.92841834 7.70060956 75.0078125 7.75585938 C86.94266481 7.86350429 98.87756133 7.96493517 110.8125 8.0625 C110.8125 8.3925 110.8125 8.7225 110.8125 9.0625 C109.62312836 9.05726318 108.43375671 9.05202637 107.20834351 9.04663086 C95.99629326 9.00247335 84.78491481 9.00029481 73.57283592 9.03915405 C67.80854101 9.05778466 62.04502533 9.06165519 56.28076172 9.03173828 C50.71713034 9.00340661 45.15480051 9.0139193 39.59123611 9.05130005 C37.46938981 9.05874323 35.34744678 9.05221903 33.22568893 9.03146362 C30.25104811 9.00475785 27.28062397 9.0278373 24.30615234 9.0625 C23.4300531 9.04308853 22.55395386 9.02367706 21.65130615 9.00367737 C17.96948996 9.09126176 15.72015014 9.21794204 12.9583168 11.78779602 C7.81782428 18.498536 5.25682533 24.94552421 5.375 33.375 C5.38112305 34.12048096 5.38724609 34.86596191 5.39355469 35.6340332 C5.64056332 44.38478906 8.66885701 51.08184166 13.8125 58.0625 C13.0390625 58.28164062 12.265625 58.50078125 11.46875 58.7265625 C1.62788641 61.72266701 -6.47633255 66.22803785 -12.1875 75.0625 C-13.44595262 78.00708249 -14.35560467 80.97431302 -15.1875 84.0625 C-15.6825 85.5475 -15.6825 85.5475 -16.1875 87.0625 C-17.06792969 87.07667969 -17.94835937 87.09085937 -18.85546875 87.10546875 C-20.59763672 87.17701172 -20.59763672 87.17701172 -22.375 87.25 C-24.09783203 87.30220703 -24.09783203 87.30220703 -25.85546875 87.35546875 C-30.26283738 88.29067827 -31.64753314 89.32725461 -34.1875 93.0625 C-34.91493264 96.66856682 -34.97781373 100.2044054 -35 103.875 C-35.02513672 104.85404297 -35.05027344 105.83308594 -35.07617188 106.84179688 C-35.13488663 109.24910197 -35.1712798 111.65459562 -35.1875 114.0625 C-41.75474487 110.35590247 -46.38174023 105.50490556 -48.7109375 98.22265625 C-50.35200116 90.7840644 -49.44998859 85.04033167 -45.73828125 78.390625 C-41.21026897 71.5929038 -36.04476203 67.25745981 -27.8515625 65.5859375 C-27.05492188 65.43382812 -26.25828125 65.28171875 -25.4375 65.125 C-22.57520791 64.52421173 -21.36109604 64.20546145 -19.0625 62.3125 C-17.80124043 59.06926111 -18.1276954 57.37438937 -19.1875 54.0625 C-20.38505737 52.6060113 -21.58739995 51.1521832 -22.84375 49.74609375 C-27.13867581 44.36495124 -28.88155435 38.37184488 -28.57421875 31.546875 C-27.27444237 23.19679641 -22.68375071 16.66754955 -16 11.6875 C-13.1875 10.0625 -13.1875 10.0625 -11.1875 10.0625 C-11.07792969 9.42441406 -10.96835938 8.78632812 -10.85546875 8.12890625 C-10.69691406 7.30261719 -10.53835937 6.47632812 -10.375 5.625 C-10.22417969 4.80128906 -10.07335937 3.97757812 -9.91796875 3.12890625 C-9.67691406 2.44699219 -9.43585938 1.76507813 -9.1875 1.0625 C-5.90230525 -0.03256492 -3.45086585 -0.03710608 0 0 Z " fill="#443C7F" transform="translate(78.1875,63.9375)"/>
<path d="M0 0 C3.53597062 0.79436318 4.91655679 2.54970701 6.96484375 5.44140625 C7.60546875 7.484375 7.60546875 7.484375 8.08984375 9.62890625 C8.55682188 13.66547437 8.55682188 13.66547437 11.96484375 15.44140625 C15.29017168 15.30285092 17.24067352 15.11385004 19.71484375 12.81640625 C21.13118024 10.32634414 21.13118024 10.32634414 21.96484375 6.87890625 C22.94685328 3.5032485 23.28436983 2.49297627 25.96484375 0.44140625 C30.07179438 -0.39813614 33.78536545 -0.20730682 37.46484375 1.81640625 C39.41330281 5.2262096 39.44871177 8.11858388 39.49609375 12.00390625 C40.14389705 15.37248342 41.17435117 16.46293804 43.96484375 18.44140625 C47.48855136 19.03058696 47.48855136 19.03058696 51.33984375 19.00390625 C57.95103585 19.11652175 62.28466976 20.11388674 67.33984375 24.50390625 C69.71961598 28.8058022 69.86447393 32.63568945 68.96484375 37.44140625 C66.94346494 41.34833999 64.00267458 43.76887868 59.96484375 45.44140625 C58.00132751 45.70883179 58.00132751 45.70883179 55.92163086 45.73193359 C54.74406471 45.75107315 54.74406471 45.75107315 53.54270935 45.77059937 C52.70103714 45.77282501 51.85936493 45.77505066 50.9921875 45.77734375 C50.11389786 45.78400055 49.23560822 45.79065735 48.33070374 45.79751587 C46.47057178 45.80763463 44.61040359 45.81233313 42.75024414 45.81201172 C39.93638167 45.81635373 37.1241287 45.85259361 34.31054688 45.890625 C20.91560706 45.97628706 10.73357826 44.70280005 0.1953125 35.72265625 C-6.53343085 28.8407191 -10.29744467 20.44197485 -10.41015625 10.81640625 C-10.43851563 9.71039063 -10.466875 8.604375 -10.49609375 7.46484375 C-9.57322113 1.41142506 -5.91732438 -0.34159601 0 0 Z " fill="#514696" transform="translate(215.03515625,214.55859375)"/>
<path d="M0 0 C1.11632812 0.00902344 2.23265625 0.01804688 3.3828125 0.02734375 C4.20523437 0.03894531 5.02765625 0.05054688 5.875 0.0625 C5.87864563 1.13974838 5.88229126 2.21699677 5.88604736 3.32688904 C5.92321658 13.54948959 5.9812249 23.771795 6.05890274 33.99417019 C6.09817441 39.24783393 6.13046146 44.50133515 6.14599609 49.75512695 C6.16129778 54.83876353 6.19597795 59.92195265 6.24330902 65.00538826 C6.25798497 66.93110292 6.26603295 68.85688151 6.26688385 70.7826519 C6.2859137 92.28404088 9.84492232 114.52694656 24.875 131.0625 C28.01153024 132.47357311 28.01153024 132.47357311 30.875 133.0625 C30.875 133.3925 30.875 133.7225 30.875 134.0625 C27.245 134.0625 23.615 134.0625 19.875 134.0625 C19.47410156 133.14210938 19.07320313 132.22171875 18.66015625 131.2734375 C11.21800228 114.55197307 -0.09283337 93.57858331 -17.125 85.0625 C-17.125 57.3425 -17.125 29.6225 -17.125 1.0625 C-11.18640565 0.46864057 -5.86408913 -0.06238393 0 0 Z " fill="#F9C6B9" transform="translate(333.125,173.9375)"/>
<path d="M0 0 C0.33 0 0.66 0 1 0 C1 30.69 1 61.38 1 93 C-7.58 93 -16.16 93 -25 93 C-25.12375 88.66875 -25.12375 88.66875 -25.25 84.25 C-25.84927063 71.16406803 -29.46305704 61.73341431 -37 51 C-37.515625 50.26007813 -38.03125 49.52015625 -38.5625 48.7578125 C-39.69182344 47.16007649 -40.84296079 45.57778074 -42 44 C-41.28457031 43.55011719 -40.56914062 43.10023438 -39.83203125 42.63671875 C-22.61588058 31.52305874 -9.03635047 18.68274991 0 0 Z " fill="#DD72BF" transform="translate(347,404)"/>
<path d="M0 0 C2.33278289 1.54796188 4.38835307 3.30425765 6.52734375 5.109375 C14.47861167 11.18901745 23.1745649 13.17435479 33 12 C41.11965375 10.64115534 49.81959586 7.54299021 55.53125 1.3359375 C57.42163502 -0.38350845 58.47667784 -0.40367412 61 -0.375 C63.4205813 -0.25931045 64.81798307 -0.09100847 67 1 C68.72591217 4.45182435 69.09508384 7.35623889 68 11 C60.80086025 20.44004844 47.49808659 26.21173718 36 28 C19.56299403 29.37257473 5.76690341 25.41948356 -7.0625 14.75 C-10.13448804 12.06110694 -10.94216953 10.79516891 -11.25 6.5625 C-11 3 -11 3 -10 1.0625 C-6.63296945 -0.72623498 -3.62284679 -0.89617789 0 0 Z " fill="#030202" transform="translate(231,355)"/>
<path d="M0 0 C2.06843651 1.37614347 3.9771402 2.8932394 5.92578125 4.43359375 C13.93175396 10.47953548 22.15046666 11.16652558 32 10 C39.03362062 8.09353997 44.21147298 5.11983357 49.484375 0.1796875 C51 -1 51 -1 54.125 -1.6875 C58.12230474 -0.73162278 59.64683443 0.64852177 62 4 C62.34951306 7.774741 61.93101459 9.87702363 59.484375 12.828125 C54.60566403 17.38952144 49.0881218 20.34824059 43 23 C41.79923828 23.53173828 41.79923828 23.53173828 40.57421875 24.07421875 C28.86768887 28.28430613 15.22835941 26.85897279 4 22 C-2.23608733 18.73159382 -8.39021362 15.18820522 -12 9 C-12.06562608 5.12806099 -11.83318187 3.02545461 -9.375 0 C-5.76372441 -1.52053709 -3.76494124 -1.06673335 0 0 Z " fill="#040303" transform="translate(105,239)"/>
<path d="M0 0 C2.34702205 1.63290031 4.51423298 3.42694441 6.72265625 5.2421875 C13.40140461 10.39731059 20.76623505 10.94677659 29 10 C34.51122015 8.59440062 38.82402294 6.28742863 43.25 2.75 C45.80518592 0.72950087 46.91463539 0.01841197 50.1875 -0.6875 C54.14206159 0.27917061 55.66982773 1.6812698 58 5 C58.34823313 8.76091785 57.92149226 10.8621151 55.51953125 13.828125 C45.91948551 22.93332302 33.39322516 26.55262642 20.44140625 26.3125 C10.79270154 25.43634066 2.54121342 22.00474998 -5 16 C-6.010625 15.21625 -7.02125 14.4325 -8.0625 13.625 C-10.89468151 9.78785085 -10.68191639 7.69764627 -10 3 C-7.18870667 -0.46005333 -4.25982246 -0.80374009 0 0 Z " fill="#050404" transform="translate(365,247)"/>
<path d="M0 0 C1.051875 0.20882813 2.10375 0.41765625 3.1875 0.6328125 C4.7034375 0.93832031 4.7034375 0.93832031 6.25 1.25 C8.91349398 1.6316592 11.57679542 1.94155332 14.25 2.25 C13.528125 2.86875 12.80625 3.4875 12.0625 4.125 C4.40881478 11.77868522 2.05511366 22.76590719 1.625 33.1875 C1.50125 35.848125 1.3775 38.50875 1.25 41.25 C-7 41.25 -15.25 41.25 -23.75 41.25 C-24.31249341 27.30016348 -23.7570482 17.64668556 -14.1875 6.6875 C-12.748767 5.16897591 -11.27209106 3.68495884 -9.75 2.25 C-9.11707031 1.64800781 -8.48414063 1.04601562 -7.83203125 0.42578125 C-4.9127869 -1.22279764 -3.23906426 -0.68809137 0 0 Z " fill="#93D4A2" transform="translate(235.75,455.75)"/>
<path d="M0 0 C3.3 1.65 6.6 3.3 10 5 C10 15.89 10 26.78 10 38 C-4.83294664 38 -4.83294664 38 -10.75390625 32.31640625 C-15.55747725 26.93409176 -17.49721484 22.86700512 -17.3046875 15.59375 C-16.57473172 9.3797675 -13.8428975 5.36845068 -9.0625 1.4375 C-5.34847235 -1.40524482 -5.11048296 -1.02209659 0 0 Z " fill="#E5A89A" transform="translate(33,189)"/>
<path d="M0 0 C1.97265625 0.41796875 1.97265625 0.41796875 4.97265625 2.04296875 C7.73528599 6.70490643 7.08801614 10.46212759 6.91015625 15.78125 C7.09153093 26.33498907 12.84373635 34.27881989 20.05371094 41.50317383 C23.97297448 44.07416613 26.96422014 44.02014547 31.5546875 44.02734375 C32.36886642 44.04388 33.18304535 44.06041626 34.02189636 44.07745361 C36.60972705 44.12584663 39.19697051 44.14728443 41.78515625 44.16796875 C43.54495128 44.19613583 45.30471906 44.2260643 47.06445312 44.2578125 C51.36713913 44.33160284 55.66950082 44.38123025 59.97265625 44.41796875 C59.97265625 44.74796875 59.97265625 45.07796875 59.97265625 45.41796875 C54.33509336 45.51767396 48.69805625 45.58982842 43.05981445 45.63769531 C41.14631191 45.65767294 39.23286933 45.68486474 37.31958008 45.71972656 C22.87764249 45.97607001 11.66588935 45.46717057 0.203125 35.69921875 C-6.52561835 28.8172816 -10.28963217 20.41853735 -10.40234375 10.79296875 C-10.43070313 9.68695313 -10.4590625 8.5809375 -10.48828125 7.44140625 C-9.56966489 1.41590573 -5.9143335 -0.40902867 0 0 Z " fill="#443C7F" transform="translate(215.02734375,214.58203125)"/>
<path d="M0 0 C10.33923304 0 10.33923304 0 15 4 C18.28340824 7.82580016 19.75022299 11.81887616 19.44140625 16.94921875 C18.41566967 21.71480903 16.03681045 25.51107901 12.09765625 28.390625 C7.57497976 30.85596113 5.51744942 31 0 31 C0 20.77 0 10.54 0 0 Z " fill="#855A5A" transform="translate(357,323)"/>
<path d="M0 0 C0 10.23 0 20.46 0 31 C-7.15372236 31 -9.88716104 30.59157338 -15 26 C-17.75841751 22.30665667 -18.87264762 18.92330475 -19.5 14.375 C-18.69325102 8.9294444 -15.99296945 6.06224639 -12.3125 2.125 C-9 0 -9 0 0 0 Z " fill="#855A5A" transform="translate(162,323)"/>
<path d="M0 0 C3.5 0.5625 3.5 0.5625 5.6953125 2.40625 C8.37081063 7.08547617 8.00600778 11.33297518 7.875 16.625 C7.87371094 17.61822266 7.87242187 18.61144531 7.87109375 19.63476562 C7.76921275 28.03994853 7.76921275 28.03994853 5.5 31.5625 C2.5 33.5625 2.5 33.5625 -1 33.4375 C-4.5 32.5625 -4.5 32.5625 -6.19165039 30.8515625 C-8.68761518 26.48467206 -7.96933686 21.47116483 -7.9375 16.5625 C-7.95748047 15.469375 -7.97746094 14.37625 -7.99804688 13.25 C-7.99708008 11.6721875 -7.99708008 11.6721875 -7.99609375 10.0625 C-7.99794678 9.1034375 -7.9997998 8.144375 -8.00170898 7.15625 C-7.08114573 2.39709477 -4.62611275 0.74348241 0 0 Z " fill="#050504" transform="translate(365.5,191.4375)"/>
<path d="M0 0 C4.07474064 0.65486903 5.00232111 1.36966011 7.5 4.5625 C8.31989614 8.69012358 8.10283893 12.86250588 8.0625 17.0625 C8.08634766 18.20332031 8.11019531 19.34414062 8.13476562 20.51953125 C8.12012146 28.82765607 8.12012146 28.82765607 5.15625 32.33984375 C1.6815781 33.93921479 0.08989795 33.86097373 -3.5 32.5625 C-6.0514535 30.3351876 -7.34186956 28.54927832 -7.88305664 25.17211914 C-8.03914625 22.29179005 -8.04529917 19.44654692 -8 16.5625 C-8.01546875 15.57765625 -8.0309375 14.5928125 -8.046875 13.578125 C-8.02284322 9.13224485 -7.93379766 6.31697136 -5.6875 2.41015625 C-3.5 0.5625 -3.5 0.5625 0 0 Z " fill="#080706" transform="translate(411.5,191.4375)"/>
<path d="M0 0 C4.07021623 0.65414189 4.99895718 1.38033358 7.5 4.5625 C8.01757812 7.15625 8.01757812 7.15625 8.03125 10.0625 C8.03640625 11.114375 8.0415625 12.16625 8.046875 13.25 C8.03140625 14.343125 8.0159375 15.43625 8 16.5625 C8.01546875 17.655625 8.0309375 18.74875 8.046875 19.875 C8.04171875 20.926875 8.0365625 21.97875 8.03125 23.0625 C8.02673828 24.0215625 8.02222656 24.980625 8.01757812 25.96875 C7.35371835 29.29556424 6.13644074 30.48878731 3.5 32.5625 C0.5625 33.125 0.5625 33.125 -2.5 32.5625 C-5.50275535 30.4738187 -7.2514537 28.8409804 -7.96508789 25.17016602 C-8.13803847 22.2851647 -8.13245941 19.45163443 -8.0625 16.5625 C-8.07345703 15.57765625 -8.08441406 14.5928125 -8.09570312 13.578125 C-8.05069298 9.13712365 -7.93013169 6.30898661 -5.68359375 2.41015625 C-3.5 0.5625 -3.5 0.5625 0 0 Z " fill="#040303" transform="translate(287.5,304.4375)"/>
<path d="M0 0 C3.5 0.5625 3.5 0.5625 5.68359375 2.41015625 C8.36619232 7.0657628 8.12125771 11.28121892 8.0625 16.5625 C8.08634766 17.54734375 8.11019531 18.5321875 8.13476562 19.546875 C8.12504771 24.34104514 8.08011997 26.78223865 5.15625 30.71484375 C2.5 32.5625 2.5 32.5625 -0.5625 33.125 C-4.19808353 32.42882443 -5.20715048 31.42432485 -7.5 28.5625 C-8.01757812 25.96875 -8.01757812 25.96875 -8.03125 23.0625 C-8.03640625 22.010625 -8.0415625 20.95875 -8.046875 19.875 C-8.03140625 18.781875 -8.0159375 17.68875 -8 16.5625 C-8.01546875 15.469375 -8.0309375 14.37625 -8.046875 13.25 C-8.03914062 11.6721875 -8.03914062 11.6721875 -8.03125 10.0625 C-8.02673828 9.1034375 -8.02222656 8.144375 -8.01757812 7.15625 C-7.06919697 2.40360782 -4.63095186 0.74426012 0 0 Z " fill="#030202" transform="translate(231.5,304.4375)"/>
<path d="M0 0 C3.5 0.5625 3.5 0.5625 5.68359375 1.9140625 C8.59501144 6.15909733 8.11792214 10.47614567 8.0625 15.5 C8.08634766 16.48935547 8.11019531 17.47871094 8.13476562 18.49804688 C8.1250933 23.29229656 8.06313495 25.78497357 5.19140625 29.75 C2.5 31.5625 2.5 31.5625 -1.125 31.625 C-4.87505181 30.44442813 -5.56446892 29.84798412 -7.5 26.5625 C-8.10680384 23.10463473 -7.96378561 19.63054519 -7.9375 16.125 C-7.95748047 15.18333984 -7.97746094 14.24167969 -7.99804688 13.27148438 C-7.99497533 8.91910717 -7.90433061 6.2611274 -5.69140625 2.4375 C-3.5 0.5625 -3.5 0.5625 0 0 Z " fill="#060504" transform="translate(150.5,181.4375)"/>
<path d="M0 0 C2.86178378 2.05493725 4.72654551 3.65711394 5.44897461 7.20483398 C5.60150311 9.82045343 5.58348925 12.38147349 5.5 15 C5.50257812 15.88945312 5.50515625 16.77890625 5.5078125 17.6953125 C5.43585337 22.51657448 5.28767607 26.19241236 2 30 C-1.375 31.125 -1.375 31.125 -5 31 C-7.69140625 29.18359375 -7.69140625 29.18359375 -10 26 C-10.71123165 22.29679385 -10.65311817 18.69692963 -10.5625 14.9375 C-10.57345703 13.94427734 -10.58441406 12.95105469 -10.59570312 11.92773438 C-10.52318411 4.74835196 -10.52318411 4.74835196 -8.1484375 1.3515625 C-5.14051487 -0.54069428 -3.49036548 -0.64108754 0 0 Z " fill="#050404" transform="translate(112,182)"/>
<path d="M0 0 C3.64783276 3.06749573 5.37230862 5.58303748 7 10 C6.31292969 10.26554688 5.62585938 10.53109375 4.91796875 10.8046875 C4.01691406 11.15789062 3.11585938 11.51109375 2.1875 11.875 C1.29417969 12.22304687 0.40085938 12.57109375 -0.51953125 12.9296875 C-3.17711591 13.98832155 -3.17711591 13.98832155 -6 16 C-6.53109375 15.65066406 -7.0621875 15.30132812 -7.609375 14.94140625 C-8.31578125 14.48636719 -9.0221875 14.03132813 -9.75 13.5625 C-10.44609375 13.11003906 -11.1421875 12.65757812 -11.859375 12.19140625 C-13.92957014 11.0391991 -15.68696324 10.45323018 -18 10 C-18 8.02 -18 6.04 -18 4 C-16.13879837 2.9338748 -14.26029266 1.89792035 -12.375 0.875 C-11.33085937 0.29492188 -10.28671875 -0.28515625 -9.2109375 -0.8828125 C-5.2628356 -2.25648299 -3.71743141 -1.7749426 0 0 Z " fill="#E4A899" transform="translate(235,190)"/>
</svg>
